<?xml version="1.0" encoding="utf-8"?>
<svg xmlns="http://www.w3.org/2000/svg" viewBox="0 0 800 189" version="1.2">
	<title>A music score illustrating an Osage Mescal Ceremony song.</title>
	<path d="M-.001 12.364h799.98M-.001 19.789h799.98M-.001 27.213h799.98M-.001 34.638h799.98M-.001 42.062h799.98M-.001 123.734h799.98M-.001 131.158h799.98M-.001 138.583h799.98M-.001 146.007h799.98M-.001 153.432h799.98" fill="none" stroke="#000" stroke-linejoin="bevel" stroke-width=".59396"/>
	<path d="M539.2 113.32c29.29-15.442 180.64-9.383 198.42 8.654-17.847-16.852-169.2-22.909-198.42-8.654" fill-rule="evenodd" stroke="#000" stroke-linecap="round" stroke-linejoin="round" stroke-width=".52"/>
	<path d="M799.386 123.734v29.698M678.01 123.734v29.698M519.274 123.734v29.698M326.563 123.734v29.698M211.692 123.734v29.698M545.588 12.364v29.698M418.584 12.364v29.698M268.402 12.364v29.698" stroke="#000" stroke-linejoin="bevel" stroke-width="1.18792"/>
	<path d="M738.387 148.324v-24.59M605.027 144.612v-24.59M538.058 140.9v-24.59M457.458 140.9v-22.734M386.925 140.9v-22.734M287.6 139.979v24.59M221.686 136.266v24.59M148.005 136.266v24.59M84.44 136.266v24.59M720.701 13.76v24.59M644.482 13.76v24.59M574.514 24.897v24.59M479.05 24.897v22.734M325.897 24.897v22.734M146.668 24.897v24.59M84.44 24.897v24.59" stroke="#000" stroke-linecap="round" stroke-linejoin="bevel" stroke-width=".9651850000000001"/>
	<path d="M735.63 145.64q1.392 0 2.367.719.881.788.88 1.972 0 1.995-2.041 3.736-2.088 1.74-4.477 1.74-1.393 0-2.343-.72-.907-.79-.906-1.972 0-1.995 2.09-3.736 2.04-1.74 4.43-1.739M602.27 141.93q1.392 0 2.366.719.882.788.882 1.972 0 1.995-2.042 3.736-2.088 1.74-4.479 1.74-1.392 0-2.343-.72-.904-.79-.904-1.972 0-1.995 2.088-3.736 2.042-1.74 4.432-1.739M535.3 138.21q1.392 0 2.367.719.882.788.882 1.972-.001 1.995-2.042 3.736-2.089 1.74-4.478 1.74-1.393 0-2.343-.72-.905-.79-.906-1.972 0-1.995 2.089-3.736 2.04-1.74 4.431-1.739M454.69 138.21q1.392 0 2.367.719.882.788.882 1.972-.001 1.995-2.042 3.736-2.089 1.74-4.478 1.74-1.393 0-2.343-.72-.905-.79-.906-1.972 0-1.995 2.089-3.736 2.04-1.74 4.431-1.739M384.17 138.21q1.392 0 2.367.719.881.788.88 1.972 0 1.995-2.041 3.736-2.088 1.74-4.477 1.74-1.393 0-2.343-.72-.907-.79-.906-1.972 0-1.995 2.09-3.736 2.04-1.74 4.43-1.739M293.65 134.5q1.393 0 2.367.719.882.788.882 1.972 0 1.995-2.042 3.736-2.089 1.74-4.478 1.74-1.393 0-2.343-.72-.905-.79-.905-1.972 0-1.995 2.088-3.736 2.042-1.74 4.431-1.739M227.72 130.79q1.392 0 2.367.719.881.788.88 1.972 0 1.995-2.041 3.736-2.088 1.74-4.477 1.74-1.393 0-2.344-.72-.906-.79-.905-1.972 0-1.995 2.089-3.736 2.04-1.74 4.431-1.739M154.05 130.79q1.393 0 2.367.719.882.788.882 1.972 0 1.995-2.042 3.736-2.089 1.74-4.478 1.74-1.393 0-2.343-.72-.905-.79-.905-1.972 0-1.995 2.088-3.736 2.042-1.74 4.431-1.739M90.478 130.79q1.392 0 2.367.719.88.788.881 1.972 0 1.995-2.042 3.736-2.088 1.74-4.477 1.74-1.393 0-2.344-.72-.905-.79-.905-1.972 0-1.995 2.088-3.736 2.042-1.74 4.432-1.739M726.74 8.283q1.392 0 2.367.72.882.788.882 1.971-.001 1.995-2.042 3.736-2.089 1.74-4.478 1.74-1.393 0-2.343-.72-.905-.788-.906-1.971 0-1.995 2.089-3.736 2.04-1.74 4.431-1.74M650.53 8.283q1.392 0 2.366.72.882.788.882 1.971 0 1.995-2.042 3.736-2.088 1.74-4.479 1.74-1.392 0-2.343-.72-.904-.788-.904-1.971 0-1.995 2.088-3.736 2.042-1.74 4.432-1.74M580.55 19.42q1.392 0 2.367.72.881.788.88 1.971 0 1.995-2.041 3.736-2.088 1.74-4.477 1.74-1.393 0-2.343-.72-.907-.787-.906-1.971 0-1.995 2.09-3.736 2.04-1.74 4.43-1.74M485.1 19.42q1.392 0 2.367.72.882.788.882 1.971-.001 1.995-2.042 3.736-2.089 1.74-4.478 1.74-1.393 0-2.343-.72-.905-.787-.905-1.971 0-1.995 2.088-3.736 2.04-1.74 4.431-1.74M331.95 19.42q1.392 0 2.366.72.882.788.882 1.971 0 1.995-2.042 3.736-2.089 1.74-4.477 1.74-1.392 0-2.345-.72-.904-.787-.904-1.971 0-1.995 2.088-3.736 2.042-1.74 4.432-1.74M152.71 19.42q1.392 0 2.366.72.882.788.882 1.971 0 1.995-2.042 3.736-2.089 1.74-4.477 1.74-1.392 0-2.345-.72-.904-.787-.904-1.971 0-1.995 2.088-3.736 2.042-1.74 4.432-1.74M90.478 19.42q1.392 0 2.367.72.88.788.881 1.971 0 1.995-2.042 3.736-2.088 1.74-4.477 1.74-1.393 0-2.344-.72-.905-.787-.905-1.971 0-1.995 2.088-3.736 2.042-1.74 4.432-1.74"/>
	<path d="M15.657 138.4h.186a1 1 0 0 1 .185-.024q3.249 0 5.337 2.297 2.088 2.251 2.088 5.267 0 3.759-3.086 6.102-.812.65-2.135 1.044.163 1.88.163 3.04 0 .23-.07 1.694-.116 2.69-1.856 4.663-1.671 1.95-4.176 1.95-2.344 0-3.991-1.65-1.67-1.691-1.67-4.059 0-1.252.974-2.134a3.33 3.33 0 0 1 2.274-.86q1.16 0 1.949.906.812.836.812 2.088 0 1.114-.812 1.926a2.66 2.66 0 0 1-1.95.812q-.464 0-.881-.163 1.276 1.88 3.388 1.88 1.995 0 3.271-1.625 1.345-1.67 1.462-3.92.046-1.391.046-1.578 0-1.624-.116-2.669-1.438.233-2.575.233-4.037 0-6.868-3.203-2.784-3.224-2.784-7.656 0-.927.162-1.88.185-.787.441-1.716.14-.534.789-1.693.232-.35.522-.87.29-.523.406-.685.278-.58 1.114-1.578.231-.255.487-.57l.429-.52a6 6 0 0 0 .255-.325q.082-.117 1.311-1.531.278-.302.557-.627t.453-.523q.173-.196.266-.266-1.044-3.457-1.322-5.522-.186-1.647-.186-4.525 0-2.529 1.16-4.732a9.85 9.85 0 0 1 3.156-3.736.43.43 0 0 1 .278-.094q.21 0 .302.094 1.554 1.88 2.691 4.896 1.16 3.015 1.16 5.498 0 2.785-1.322 5.221-1.509 2.576-3.898 5.336.603 1.902 1.624 5.987m2.46 13.502a4.68 4.68 0 0 0 2.366-1.879q.928-1.276.928-2.877 0-2.065-1.392-3.667-1.438-1.646-3.643-1.856 1.254 6.126 1.74 10.28M6.91 145.197q0 2.877 2.32 5.057 2.366 2.112 5.336 2.112 1.207 0 2.367-.186-.464-4.407-1.833-10.558-1.647.186-2.622 1.162-.975 1.02-.975 2.297 0 2.203 2.367 3.573.186.21.186.44c0 .23-.062.295-.186.418a.57.57 0 0 1-.44.21q-.024 0-.256-.048-1.67-.905-2.552-2.32-.858-1.53-.859-3.063 0-1.995 1.253-3.619 1.3-1.624 3.388-2.088-.812-3.249-1.323-5.081-.463.533-1.113 1.264-.65.73-.766.894-1.044 1.344-1.6 2.111-.999 1.368-1.463 2.343-.486 1.113-.858 2.413a9.3 9.3 0 0 0-.371 2.669m9.675-29.491q-2.181 1.067-3.41 3.063-1.277 2.066-1.277 4.431 0 2.089 1.044 5.638 2.088-2.528 3.132-4.664a10.8 10.8 0 0 0 1.09-4.732q.001-1.856-.58-3.736M15.657 27.03h.186q.116-.023.185-.023 3.249 0 5.337 2.297 2.088 2.25 2.088 5.267 0 3.758-3.086 6.102-.812.649-2.135 1.044.163 1.88.163 3.04 0 .231-.07 1.693-.116 2.691-1.856 4.664-1.671 1.949-4.176 1.949-2.344 0-3.991-1.647-1.67-1.695-1.67-4.06 0-1.254.974-2.135a3.33 3.33 0 0 1 2.274-.859q1.16 0 1.949.905.812.836.812 2.088 0 1.114-.812 1.926a2.66 2.66 0 0 1-1.95.812q-.464 0-.881-.162 1.276 1.879 3.388 1.879 1.995 0 3.271-1.624 1.345-1.671 1.462-3.921.046-1.393.046-1.578 0-1.624-.116-2.668-1.438.232-2.575.232-4.037 0-6.868-3.202-2.784-3.225-2.784-7.657 0-.928.162-1.88.185-.788.441-1.716.14-.534.789-1.694.232-.348.522-.87t.406-.684q.278-.58 1.114-1.578.231-.255.487-.569l.429-.522q.174-.209.255-.324.082-.117 1.311-1.532.278-.301.557-.626t.453-.522.266-.267q-1.044-3.458-1.322-5.522-.186-1.647-.186-4.525 0-2.528 1.16-4.733A9.85 9.85 0 0 1 14.822.093.43.43 0 0 1 15.1 0q.21 0 .302.093 1.554 1.88 2.691 4.895 1.16 3.016 1.16 5.5 0 2.783-1.322 5.22-1.509 2.575-3.898 5.336.603 1.902 1.624 5.986m2.46 13.503a4.68 4.68 0 0 0 2.366-1.879 4.77 4.77 0 0 0 .928-2.877q0-2.065-1.392-3.666-1.438-1.647-3.643-1.856 1.254 6.125 1.74 10.278M6.91 33.828q0 2.877 2.32 5.058 2.366 2.11 5.336 2.111 1.207 0 2.367-.186-.464-4.407-1.833-10.557-1.647.186-2.622 1.16-.975 1.022-.975 2.297 0 2.205 2.367 3.573.186.21.186.441c0 .231-.062.294-.186.418a.57.57 0 0 1-.44.209q-.024 0-.256-.047-1.67-.904-2.552-2.32-.858-1.53-.859-3.063 0-1.995 1.253-3.62 1.3-1.623 3.388-2.087-.812-3.25-1.323-5.081-.463.533-1.113 1.264-.65.73-.766.893a91 91 0 0 0-1.6 2.112q-.999 1.368-1.463 2.343-.486 1.114-.858 2.413a9.4 9.4 0 0 0-.371 2.668m9.675-29.49q-2.181 1.068-3.41 3.063-1.277 2.065-1.277 4.432 0 2.088 1.044 5.638 2.088-2.528 3.132-4.664a10.8 10.8 0 0 0 1.09-4.733q.001-1.856-.58-3.736"/>
	<path d="m49.838 136.38-.371-18.446q0-.441.696-.441.672 0 .673.441l-.232 10.071q.789-.79 1.369-1.114.533-.278 1.345-.279 1.137 0 1.96.894.824.894.824 2.052 0 1.51-1.461 3.18-.534.579-1.172 1.171-.637.591-1.555 1.393-.916.8-1.194 1.056-.419.347-.441.347h-.163q-.278 0-.278-.325m.742-7.447-.092 6.589q.905-.858 1.833-2.819.928-1.962.928-3.353 0-.696-.232-1.277-.233-.579-.731-.579-.499 0-.893.348-.394.347-.813 1.091M42.413 147.52l-.371-18.446q0-.441.696-.441.672 0 .673.441l-.232 10.071q.789-.79 1.369-1.114.533-.278 1.345-.279 1.138 0 1.96.894.825.894.824 2.052 0 1.51-1.461 3.18a21 21 0 0 1-1.172 1.171q-.637.592-1.555 1.393-.916.8-1.194 1.056-.419.347-.441.347h-.163q-.278 0-.278-.325m.742-7.447-.092 6.589q.905-.858 1.832-2.819.929-1.962.928-3.353 0-.696-.231-1.277-.233-.579-.731-.579-.499 0-.894.348-.394.347-.812 1.091M34.989 132.67l-.371-18.446q0-.441.696-.441.672 0 .673.441l-.232 10.071q.789-.79 1.369-1.114.533-.278 1.345-.279 1.138 0 1.96.894.825.894.824 2.052 0 1.509-1.461 3.18a21 21 0 0 1-1.172 1.171q-.638.592-1.555 1.393-.916.8-1.194 1.056-.419.347-.441.347h-.163q-.278 0-.278-.325m.742-7.447-.092 6.589q.905-.858 1.832-2.819.929-1.962.928-3.353 0-.696-.232-1.277-.232-.579-.73-.579-.499 0-.894.348-.394.347-.812 1.091M27.564 143.81l-.371-18.446q0-.441.696-.441.673 0 .673.441l-.232 10.071q.789-.79 1.369-1.114.533-.278 1.345-.279 1.137 0 1.96.894.824.894.824 2.052 0 1.51-1.461 3.18-.534.579-1.172 1.171-.637.591-1.555 1.393-.916.8-1.194 1.056-.418.347-.441.347h-.163q-.278 0-.278-.325m.742-7.447-.092 6.589q.905-.858 1.832-2.819.929-1.962.928-3.353 0-.696-.231-1.277-.233-.579-.731-.579-.499 0-.894.348-.394.347-.812 1.091M49.838 25.012l-.371-18.446q0-.44.696-.44.672 0 .673.44l-.232 10.07q.789-.789 1.369-1.114.533-.278 1.345-.278 1.137 0 1.96.893.824.894.824 2.054 0 1.507-1.461 3.178-.534.58-1.172 1.172-.637.591-1.555 1.392-.916.8-1.194 1.056-.419.348-.441.348h-.163q-.278 0-.278-.325m.742-7.448-.092 6.59q.905-.86 1.833-2.82t.928-3.352q0-.697-.232-1.276-.233-.58-.731-.58-.499 0-.893.348t-.813 1.09M42.413 36.149l-.371-18.446q0-.44.696-.44.672 0 .673.44l-.232 10.07q.789-.789 1.369-1.114.533-.278 1.345-.278 1.138 0 1.96.893.825.894.824 2.054 0 1.507-1.461 3.178-.534.58-1.172 1.172-.637.591-1.555 1.392-.916.8-1.194 1.056-.419.348-.441.348h-.163q-.278 0-.278-.325m.742-7.448-.092 6.59q.905-.86 1.832-2.82.929-1.96.928-3.352 0-.697-.231-1.276-.233-.58-.731-.58-.499 0-.894.348-.394.348-.812 1.09M34.989 21.299l-.371-18.446q0-.44.696-.44.672 0 .673.44l-.232 10.07q.789-.789 1.369-1.114.533-.278 1.345-.278 1.138 0 1.96.893.825.893.824 2.054 0 1.507-1.461 3.178-.534.58-1.172 1.172-.638.591-1.555 1.392t-1.194 1.056q-.419.348-.441.348h-.163q-.278 0-.278-.325m.742-7.448-.092 6.59q.905-.86 1.832-2.82.929-1.96.928-3.352 0-.697-.232-1.276t-.73-.58q-.499 0-.894.348-.394.348-.812 1.09M27.564 32.436l-.371-18.446q0-.44.696-.44.673 0 .673.44l-.232 10.07q.789-.789 1.369-1.114.533-.278 1.345-.278 1.137 0 1.96.893.824.893.824 2.054 0 1.507-1.461 3.178-.534.58-1.172 1.172-.637.591-1.555 1.392-.916.8-1.194 1.056-.418.348-.441.348h-.163q-.278 0-.278-.325m.742-7.448-.092 6.59q.905-.86 1.832-2.82.929-1.96.928-3.352 0-.697-.231-1.276-.233-.58-.731-.58-.499 0-.894.348-.394.348-.812 1.09"/>
	<path d="M66.719 138.59a3.8 3.8 0 0 1-1.578-.313q-.695-.314-.974-.663a3.7 3.7 0 0 0-.766-.672q-.464-.325-.951-.325-.765 0-1.253.464-.51.44-.58 1.184-.046.325-.348.325-.348 0-.348-.325 0-1.113.534-2.02a5 5 0 0 1 1.276-1.53q.626-.558 1.67-1.346.185-.14.743-.603.556-.465.95-.79.744-.625 1.3-1.693.51-1.044.51-2.25 0-1.484-.487-2.553-.51-1.043-1.6-1.044-.651 0-1.068.279-.44.3-.44.788 0 .42.521 1.022.522.602.522 1.02 0 .859-.603 1.461-.58.581-1.415.58-.882 0-1.485-.602-.58-.626-.58-1.439 0-1.671 1.334-2.738t3.213-1.066q2.25-.001 3.898 1.206 1.648 1.16 1.648 3.085 0 1.3-.464 2.228-.44.997-1.3 1.554-.997.627-1.717.974-1.02.466-2.018.883-1.23.487-1.903.928.394-.094.79-.093 1.344 0 2.783.859 1.485.881 2.297.88.487.001.79-.185.278-.161.37-.372.116-.278.21-.393.116-.187.278-.186.348 0 .348.348 0 .812-1.16 1.972-1.137 1.16-2.947 1.161"/>
	<path d="M67.508 144.87q1.462-1.602 1.462-3.016 0-1.184-1.021-1.88-.975-.695-2.436-.696-1.02.001-1.625.638-.603.638-.603 1.451 0 1.02.905 1.553zm.928.487q2.436 1.439 2.436 3.806 0 1.786-1.462 2.992-1.485 1.276-4.153 1.277-2.274 0-3.805-1.161-1.623-1.16-1.624-2.992 0-.651.418-1.415.371-.674.742-1.046.186-.231 1.114-1.113-1.833-1.276-1.833-3.156 0-1.6 1.415-2.806 1.416-1.16 3.805-1.16 1.926 0 3.365.858 1.392.882 1.392 2.413 0 1.577-1.81 3.503m-5.476.882q-1.785 1.601-1.786 3.04 0 1.484 1.23 2.482 1.183.975 2.853.975 1.184 0 1.857-.743.696-.697.696-1.716 0-1.254-1.021-1.834zM558.35 19.35q0 .302.325.557.464.348.719.534.349.185.742.928.301.696.302 1.693 0 2.02-1.461 3.086-1.51 1.068-3.828 1.068-1.904 0-3.203-.929-1.393-.858-1.392-2.436 0-.742.58-1.392a2 2 0 0 1 1.392-.557q.813 0 1.345.58.582.557.581 1.37 0 .37-.58.811-.627.418-.627.79 0 .556.557.811.556.255 1.346.255.996 0 1.438-.974.419-1.09.419-2.483v-.487q0-.835-.07-1.485a1.53 1.53 0 0 0-.395-.881q-.326-.418-1.02-.418h-2.391q-.394 0-.394-.44 0-.372.394-.442h2.39q.813 0 1.16-.51.279-.418.278-1.462v-1.183q.001-2.691-1.972-2.692-1.74 0-1.74.952 0 .324.557.696.534.371.534.696 0 .72-.534 1.253a1.64 1.64 0 0 1-1.206.487q-.697 0-1.207-.487a1.86 1.86 0 0 1-.487-1.253q0-1.369 1.23-2.228 1.275-.811 2.9-.812 2.157 0 3.596.836 1.415.812 1.415 2.552 0 1.253-.254 1.88-.28.672-.58.811a3 3 0 0 0-.581.348.66.66 0 0 0-.278.557"/>
	<path d="M557.58 33.504q1.462-1.601 1.463-3.016-.001-1.184-1.022-1.88-.973-.696-2.437-.696-1.02 0-1.623.638-.604.64-.604 1.45 0 1.022.906 1.555zm.928.486q2.437 1.44 2.437 3.805 0 1.788-1.463 2.993-1.484 1.277-4.152 1.277-2.273 0-3.806-1.16-1.623-1.161-1.624-2.994 0-.65.419-1.415.37-.673.742-1.044.185-.232 1.114-1.114-1.833-1.275-1.834-3.155 0-1.601 1.415-2.808 1.416-1.16 3.806-1.16 1.926 0 3.363.859 1.393.881 1.393 2.413 0 1.578-1.81 3.503m-5.475.882q-1.785 1.6-1.786 3.04 0 1.485 1.23 2.482 1.183.974 2.853.974 1.183 0 1.857-.742.694-.696.694-1.717 0-1.252-1.02-1.833zM66.719 27.216q-.882 0-1.578-.313-.695-.314-.974-.662a3.7 3.7 0 0 0-.766-.672q-.464-.325-.951-.325-.765 0-1.253.464-.51.44-.58 1.183-.046.325-.348.325-.348 0-.348-.325 0-1.113.534-2.018.51-.93 1.276-1.532.626-.557 1.67-1.345.185-.14.743-.604.556-.463.95-.789.744-.626 1.3-1.693.51-1.044.51-2.251 0-1.485-.487-2.552-.51-1.044-1.6-1.044-.651 0-1.068.278-.44.301-.44.79 0 .416.521 1.02.522.603.522 1.02a2 2 0 0 1-.603 1.463q-.58.58-1.415.58a2.02 2.02 0 0 1-1.485-.604q-.58-.626-.58-1.438 0-1.67 1.334-2.738 1.334-1.067 3.213-1.067 2.25 0 3.898 1.206 1.648 1.16 1.648 3.086 0 1.3-.464 2.228-.44.997-1.3 1.554-.997.627-1.717.975-1.02.464-2.018.881-1.23.488-1.903.928a3.4 3.4 0 0 1 .79-.092q1.344 0 2.783.858 1.485.882 2.297.882.487 0 .79-.186.278-.162.37-.371.116-.278.21-.395.116-.185.278-.185.348 0 .348.348 0 .812-1.16 1.972-1.137 1.16-2.947 1.16"/>
	<path d="M67.508 33.504q1.462-1.601 1.462-3.016 0-1.184-1.021-1.88-.975-.696-2.436-.696-1.02 0-1.625.638-.603.64-.603 1.45 0 1.022.905 1.555zm.928.486q2.436 1.44 2.436 3.805 0 1.788-1.462 2.993-1.485 1.277-4.153 1.277-2.274 0-3.805-1.16-1.623-1.161-1.624-2.994 0-.65.418-1.415.371-.673.742-1.044.186-.232 1.114-1.114-1.833-1.275-1.833-3.155 0-1.601 1.415-2.808 1.416-1.16 3.805-1.16 1.926 0 3.365.859 1.392.881 1.392 2.413 0 1.578-1.81 3.503m-5.476.882q-1.785 1.6-1.786 3.04 0 1.485 1.23 2.482 1.183.974 2.853.974 1.184 0 1.857-.742.696-.696.696-1.717 0-1.252-1.021-1.833z"/>
	<path d="M605.48 120.02q0 1.484.649 2.97.604 1.437 1.509 2.737l1.74 2.552a14 14 0 0 1 1.507 2.76q.628 1.463.627 2.925 0 1.369-.695 2.854.88 1.764.88 3.456 0 2.67-1.251 5.453-.234.347-.557.347a.7.7 0 0 1-.511-.231.6.6 0 0 1-.186-.441v-.138q1.253-2.484 1.254-4.99 0-1.135-.441-2.088a9.6 9.6 0 0 0-1.277-2.087q-.951-1.255-1.508-1.81a51 51 0 0 0-1.74-1.647v2.227h-.928V120.02zm4.547 15.336q.21-.603.21-1.393a5.8 5.8 0 0 0-.396-2.042 11 11 0 0 0-1.23-2.133 74 74 0 0 0-1.484-1.764 51 51 0 0 0-1.647-1.67q0 1.183.487 2.506a18 18 0 0 0 1.09 2.18q.628.998 1.555 2.239.929 1.242 1.415 2.077M537.59 123.74v-7.425h.928q0 1.647.65 3.318.697 1.786 1.531 3.131.604.952 1.833 2.924a19 19 0 0 1 1.566 3.156 9.1 9.1 0 0 1 .639 3.317q0 3.017-1.253 6.15-.232.346-.557.347a.7.7 0 0 1-.511-.232.6.6 0 0 1-.186-.441v-.138q1.254-2.878 1.254-5.686 0-1.461-.882-3.132-.858-1.716-1.763-2.738a73 73 0 0 0-2.32-2.551zM456.98 125.59v-7.425h.928q0 1.647.65 3.318.697 1.786 1.531 3.131.604.952 1.833 2.924a19 19 0 0 1 1.566 3.156 9.1 9.1 0 0 1 .639 3.317q-.001 3.017-1.253 6.15-.232.346-.557.347a.7.7 0 0 1-.511-.232.6.6 0 0 1-.186-.441v-.138q1.254-2.878 1.254-5.686 0-1.461-.882-3.132-.858-1.716-1.763-2.738a73 73 0 0 0-2.32-2.551zM386.46 125.59v-7.425h.928q0 1.647.65 3.318.697 1.786 1.531 3.131.604.952 1.833 2.924a19 19 0 0 1 1.566 3.156 9.1 9.1 0 0 1 .639 3.317q-.001 3.017-1.253 6.15-.232.346-.557.347a.7.7 0 0 1-.511-.232.6.6 0 0 1-.186-.441v-.138q1.254-2.878 1.254-5.686 0-1.461-.882-3.132-.858-1.716-1.763-2.738a73 73 0 0 0-2.32-2.551zM288.06 158.63q1.16-.674 2.204-1.37 1.114-.788 1.972-1.578 1.045-.95 1.6-1.972.581-1.09.581-2.157 0-1.021-.417-2.066-.303.394-1.88 1.857a36 36 0 0 0-2.018 1.995q-.766.813-1.393 2.042-.649 1.23-.649 2.507zm7.982-13.759q0 1.74-1.114 3.457a7.3 7.3 0 0 1 .742 3.225q0 1.415-.788 2.854-.836 1.577-1.88 2.553l-2.274 2.203a11.3 11.3 0 0 0-1.88 2.53q-.788 1.391-.788 2.877h-.928v-14.849h.928v2.227q6.728-3.503 6.728-7.077 0-.788-.395-1.832v-.117q0-.233.164-.464a.73.73 0 0 1 .533-.231q.278 0 .51.347.255.465.302.904.023.21.046.535l.07.301q.024.21.024.557M227.95 139.37q.672 0 1.439 2.158.72 2.159.719 4.107 0 1.647-.813 3.271-.834 1.74-1.994 3.016l-2.39 2.669a16 16 0 0 0-1.973 2.946q-.811 1.623-.812 3.318h-.928v-7.424h.928q.79-.487 2.321-1.579.695-.51 2.088-1.74 1.136-1.045 1.716-2.134.605-1.16.605-2.343 0-2.761-1.602-5.5v-.116q0-.255.185-.417.233-.232.511-.232M154.28 139.37q.673 0 1.437 2.158.72 2.159.72 4.107 0 1.647-.812 3.271-.835 1.74-1.995 3.016l-2.39 2.669a16 16 0 0 0-1.972 2.946q-.812 1.623-.812 3.318h-.928v-7.424h.928q.79-.487 2.32-1.579.696-.51 2.087-1.74 1.138-1.045 1.719-2.134.602-1.16.602-2.343 0-2.761-1.6-5.5v-.116q0-.255.185-.417a.7.7 0 0 1 .511-.232M90.71 139.37q.673 0 1.438 2.158.72 2.159.72 4.107 0 1.647-.812 3.271-.835 1.74-1.996 3.016l-2.39 2.669a16 16 0 0 0-1.972 2.946q-.812 1.623-.812 3.318h-.928v-7.424h.928q.79-.487 2.32-1.579.697-.51 2.089-1.74 1.137-1.045 1.717-2.134.603-1.16.603-2.343 0-2.761-1.601-5.5v-.116a.53.53 0 0 1 .186-.417.7.7 0 0 1 .51-.232M726.98 16.868q.672 0 1.439 2.158.72 2.157.719 4.107 0 1.647-.811 3.271-.835 1.74-1.996 3.016l-2.39 2.668a16 16 0 0 0-1.973 2.947q-.811 1.624-.812 3.318h-.928v-7.425h.928q.79-.486 2.321-1.577.695-.51 2.088-1.74 1.138-1.044 1.716-2.135.605-1.16.605-2.343-.001-2.761-1.601-5.5v-.115q-.001-.256.186-.418.23-.232.509-.232M650.76 16.868q.672 0 1.439 2.158.718 2.157.719 4.107 0 1.647-.813 3.271-.835 1.74-1.995 3.016l-2.39 2.668a16 16 0 0 0-1.972 2.947q-.813 1.624-.812 3.318h-.928v-7.425h.928q.79-.486 2.32-1.577.696-.51 2.089-1.74 1.135-1.044 1.717-2.135.602-1.16.602-2.343 0-2.761-1.6-5.5v-.115q0-.256.185-.418a.7.7 0 0 1 .511-.232M580.79 28.005q.672 0 1.439 2.158.72 2.157.719 4.107 0 1.647-.813 3.271-.834 1.74-1.994 3.016l-2.39 2.668a16 16 0 0 0-1.973 2.947q-.811 1.624-.812 3.318h-.928v-7.425h.928q.79-.486 2.321-1.577.695-.51 2.088-1.74 1.136-1.044 1.716-2.135.605-1.16.605-2.343 0-2.761-1.602-5.5v-.115q0-.255.185-.418.233-.232.511-.232M152.94 28.005q.672 0 1.439 2.158.72 2.157.719 4.107 0 1.647-.813 3.271-.835 1.74-1.995 3.016l-2.39 2.668a16 16 0 0 0-1.972 2.947q-.812 1.624-.812 3.318h-.928v-7.425h.928q.79-.486 2.321-1.577.695-.51 2.088-1.74 1.136-1.044 1.716-2.135.604-1.16.603-2.343 0-2.761-1.6-5.5v-.115q0-.255.185-.418a.7.7 0 0 1 .511-.232M90.71 28.005q.673 0 1.438 2.158.72 2.157.72 4.107 0 1.647-.812 3.271-.835 1.74-1.996 3.016l-2.39 2.668a16 16 0 0 0-1.972 2.947q-.812 1.624-.812 3.318h-.928v-7.425h.928q.79-.486 2.32-1.577.697-.51 2.089-1.74 1.137-1.044 1.717-2.135.603-1.16.603-2.343 0-2.761-1.601-5.5v-.115q0-.255.186-.418a.7.7 0 0 1 .51-.232"/>
	<path d="M741.98 150.92a1.63 1.63 0 0 1-.499-1.194q0-.697.499-1.195a1.63 1.63 0 0 1 1.195-.5q.696 0 1.184.5.486.498.487 1.195 0 .695-.487 1.194-.488.5-1.184.499a1.63 1.63 0 0 1-1.195-.499M541.66 143.49a1.63 1.63 0 0 1-.499-1.194q0-.697.499-1.195a1.63 1.63 0 0 1 1.195-.5q.696 0 1.184.5.487.498.487 1.195 0 .694-.487 1.194c-.487.5-.72.499-1.184.499a1.63 1.63 0 0 1-1.195-.499M234.08 136.07a1.63 1.63 0 0 1-.499-1.194q0-.697.499-1.195a1.63 1.63 0 0 1 1.195-.5q.696 0 1.184.5.486.498.487 1.195 0 .694-.487 1.194-.488.5-1.184.499a1.63 1.63 0 0 1-1.195-.499"/>
	<path d="M799.386 12.644v29.698" stroke="#000" stroke-linejoin="bevel" stroke-width="1.18792"/>
	<path aria-label="Ya" d="M81.436 71.068v-.769h1.385v-3.893l-3.343-5.387h-1.015v-.776h4.024v.776h-1.261l2.704 4.379 2.705-4.38h-1.218v-.775h3.146v.776h-1.022l-3.255 5.25v4.03h1.385v.77zm11.753-2.422v-1.631h-1.718q-.994 0-1.48.428-.485.427-.485 1.312 0 .805.493 1.276t1.334.471q.834 0 1.341-.514.515-.515.515-1.342m1.334-2.392v4.045h1.19v.77h-2.524v-.835q-.442.537-1.022.79t-1.356.254q-1.284 0-2.038-.681-.754-.682-.754-1.842 0-1.196.863-1.856t2.436-.66h1.871v-.53q0-.877-.536-1.355-.53-.486-1.494-.486-.798 0-1.269.363-.471.362-.587 1.073h-.69v-1.56q.697-.296 1.35-.441.66-.153 1.283-.153 1.602 0 2.436.798.841.79.841 2.306" fill="#1a1a1a" style="paint-order:fill markers stroke"/>
	<path aria-label="na" d="M141.14 70.98v-.769h1.204v-6.163h-1.277v-.775h2.61v1.37q.37-.783.958-1.182.594-.399 1.377-.399 1.276 0 1.878.733t.602 2.284v4.133h1.19v.768h-3.684v-.768h1.153v-3.713q0-1.414-.348-1.936-.348-.529-1.226-.529-.928 0-1.414.682-.485.674-.485 1.972v3.524h1.16v.768zm14.864-2.422v-1.631h-1.718q-.994 0-1.48.428-.485.427-.485 1.312 0 .805.493 1.276t1.334.471q.834 0 1.341-.514.515-.515.515-1.342m1.334-2.392v4.046h1.19v.768h-2.524v-.834q-.442.537-1.022.79-.58.254-1.356.254-1.284 0-2.038-.681-.754-.682-.754-1.842 0-1.196.863-1.856t2.436-.66h1.871v-.53q0-.877-.536-1.355-.53-.486-1.494-.486-.798 0-1.269.363-.471.362-.587 1.073h-.69v-1.56q.697-.296 1.35-.441.66-.153 1.283-.153 1.602 0 2.436.798.841.79.841 2.306" fill="#1a1a1a" style="paint-order:fill markers stroke"/>
	<path aria-label="hi" d="M321.34 70.992v-.769h1.204V60.48h-1.277v-.769h2.61v4.945q.37-.783.958-1.182.594-.399 1.377-.399 1.276 0 1.878.732.602.733.602 2.284v4.133h1.19v.769h-3.684v-.769h1.153v-3.712q0-1.414-.348-1.929-.341-.522-1.226-.522-.928 0-1.414.675-.485.674-.485 1.965v3.523h1.16v.769zm10.397-10.1q0-.334.24-.58.246-.247.587-.247.333 0 .572.247.247.246.247.58 0 .34-.24.58-.239.24-.58.24t-.587-.24q-.239-.24-.239-.58m1.704 9.332h1.261v.768h-3.871v-.768h1.276V64.06h-1.276v-.776h2.61z" fill="#1a1a1a" style="paint-order:fill markers stroke"/>
	<path aria-label="yo" d="m475.69 72.215.508-1.283-2.879-7.062h-.877v-.776h3.545v.775h-1.232l2.168 5.3 2.168-5.3h-1.153v-.775h2.893v.775h-.863l-3.531 8.672q-.363.9-.805 1.226-.442.333-1.247.333-.34 0-.703-.058-.356-.058-.718-.167v-1.471h.681q.044.493.247.703.21.217.645.217.399 0 .638-.224.247-.218.515-.885m9.65-1.921q1.074 0 1.618-.849.55-.848.55-2.501t-.55-2.494q-.544-.849-1.617-.849t-1.625.849q-.543.84-.543 2.494 0 1.653.55 2.501.552.849 1.618.849m0 .717q-1.682 0-2.704-1.109-1.022-1.116-1.022-2.958t1.015-2.951q1.022-1.11 2.712-1.11t2.704 1.11q1.022 1.11 1.022 2.95 0 1.843-1.022 2.96-1.015 1.108-2.704 1.108" fill="#1a1a1a" style="paint-order:fill markers stroke"/>
	<path aria-label="hi" d="M570.87 70.992v-.769h1.204V60.48h-1.276v-.769h2.61v4.945q.37-.783.957-1.182.594-.399 1.377-.399 1.276 0 1.878.732t.602 2.284v4.133h1.19v.769h-3.684v-.769h1.153v-3.712q0-1.414-.348-1.929-.341-.522-1.226-.522-.928 0-1.414.675-.485.674-.485 1.965v3.523h1.16v.769zm10.397-10.1q0-.334.24-.58.246-.247.587-.247.333 0 .572.247.247.246.247.58 0 .34-.24.58-.239.24-.58.24t-.587-.24q-.239-.24-.239-.58m1.704 9.332h1.262v.768h-3.872v-.768h1.276V64.06h-1.276v-.776h2.61z" fill="#1a1a1a" style="paint-order:fill markers stroke"/>
	<path aria-label="ya" d="m642.91 72.454.508-1.283-2.879-7.063h-.877v-.775h3.545v.775h-1.232l2.168 5.3 2.168-5.3h-1.153v-.775h2.893v.775h-.863l-3.531 8.672q-.363.9-.805 1.226-.442.333-1.247.333-.34 0-.703-.058-.356-.058-.718-.167v-1.471h.681q.044.493.247.703.21.217.645.217.399 0 .638-.224.247-.218.515-.885m11.093-3.836v-1.631h-1.718q-.994 0-1.48.428-.485.428-.485 1.312 0 .805.493 1.276t1.334.472q.834 0 1.341-.515.515-.515.515-1.342m1.334-2.392v4.046h1.19v.768h-2.524v-.834q-.442.537-1.022.79t-1.356.254q-1.284 0-2.038-.681-.754-.682-.754-1.842 0-1.196.863-1.856t2.436-.66h1.871v-.53q0-.876-.536-1.355-.53-.486-1.494-.486-.798 0-1.269.363t-.587 1.073h-.69v-1.56q.697-.296 1.35-.441.66-.153 1.283-.153 1.602 0 2.436.798.841.79.841 2.306" fill="#1a1a1a" style="paint-order:fill markers stroke"/>
	<path aria-label="na" d="M716.24 70.98v-.769h1.204v-6.163h-1.276v-.775h2.61v1.37q.37-.783.957-1.182.594-.399 1.377-.399 1.276 0 1.878.733t.602 2.284v4.133h1.19v.768h-3.684v-.768h1.153v-3.713q0-1.414-.348-1.936-.348-.529-1.226-.529-.928 0-1.414.682-.485.674-.485 1.972v3.524h1.16v.768zm14.864-2.422v-1.631h-1.718q-.994 0-1.48.428-.485.427-.485 1.312 0 .805.493 1.276t1.334.471q.834 0 1.341-.514.515-.515.515-1.342m1.334-2.392v4.046h1.19v.768h-2.524v-.834q-.442.537-1.022.79-.58.254-1.356.254-1.284 0-2.038-.681-.754-.682-.754-1.842 0-1.196.863-1.856t2.436-.66h1.871v-.53q0-.877-.536-1.355-.53-.486-1.494-.486-.798 0-1.269.363-.471.362-.587 1.073h-.69v-1.56q.697-.296 1.35-.441.66-.153 1.283-.153 1.602 0 2.436.798.841.79.841 2.306" fill="#1a1a1a" style="paint-order:fill markers stroke"/>
	<path aria-label="Ya" d="M80.812 185.14v-.769h1.385v-3.893l-3.343-5.387H77.84v-.776h4.024v.776h-1.261l2.704 4.379 2.705-4.38h-1.218v-.775h3.146v.776h-1.022l-3.255 5.25v4.03h1.385v.77zm11.753-2.422v-1.631h-1.718q-.994 0-1.48.428-.485.427-.485 1.312 0 .805.493 1.276t1.334.471q.834 0 1.341-.514.515-.515.515-1.342m1.334-2.392v4.045h1.19v.769h-2.524v-.834q-.442.537-1.022.79-.58.254-1.356.254-1.284 0-2.038-.681t-.754-1.842q0-1.196.863-1.856t2.436-.66h1.871v-.53q0-.877-.537-1.355-.529-.486-1.493-.486-.798 0-1.269.363-.471.362-.587 1.073h-.69v-1.56q.697-.297 1.35-.442.66-.152 1.283-.152 1.602 0 2.436.798.841.79.841 2.305z" fill="#1a1a1a" style="paint-order:fill markers stroke"/>
	<path aria-label="na" d="M141.98 185.16v-.769h1.204v-6.163h-1.277v-.775h2.61v1.37q.37-.783.958-1.182.594-.399 1.377-.399 1.276 0 1.878.733.602.732.602 2.284v4.133h1.19v.768h-3.684v-.768h1.153v-3.713q0-1.414-.348-1.936-.348-.529-1.226-.529-.928 0-1.414.682-.485.674-.485 1.972v3.524h1.16v.768zm14.864-2.422v-1.631h-1.718q-.994 0-1.48.428-.485.427-.485 1.312 0 .805.493 1.276t1.334.471q.834 0 1.341-.514.515-.515.515-1.342m1.334-2.392v4.046h1.19v.768h-2.524v-.834q-.442.537-1.022.79t-1.356.254q-1.284 0-2.038-.681-.754-.682-.754-1.842 0-1.196.863-1.856t2.436-.66h1.871v-.53q0-.877-.536-1.355-.53-.486-1.494-.486-.798 0-1.269.363-.471.362-.587 1.073h-.69v-1.56q.697-.296 1.35-.441.66-.153 1.283-.153 1.602 0 2.436.798.841.79.841 2.306" fill="#1a1a1a" style="paint-order:fill markers stroke"/>
	<path aria-label="hi . . . ." d="M218.46 185.2v-.769h1.204v-9.744h-1.276v-.769h2.61v4.945q.37-.783.957-1.182.594-.399 1.377-.399 1.276 0 1.878.733.602.732.602 2.284v4.132h1.19v.77h-3.684v-.77h1.153v-3.712q0-1.414-.348-1.929-.341-.522-1.226-.522-.928 0-1.414.675-.485.674-.485 1.965v3.523h1.16v.769zm10.397-10.1q0-.334.24-.58.246-.247.587-.247.333 0 .572.247.247.246.247.58 0 .34-.24.58t-.58.24-.587-.24q-.239-.24-.239-.58m1.704 9.332h1.261v.768h-3.871v-.768h1.276v-6.163h-1.276v-.776h2.61zm7.722.014q0-.406.275-.689.276-.282.69-.282.398 0 .68.282.283.283.283.69 0 .398-.282.68-.283.283-.682.283-.413 0-.689-.275-.275-.283-.275-.689m9.44 0q0-.406.276-.689.275-.282.688-.282.4 0 .682.282.283.283.283.69 0 .398-.283.68t-.682.283q-.413 0-.688-.275-.276-.283-.276-.689m9.44 0q0-.406.276-.689.275-.282.689-.282.399 0 .681.282.283.283.283.69 0 .398-.283.68-.282.283-.681.283-.414 0-.69-.275-.275-.283-.275-.689m9.44 0q0-.406.276-.689t.689-.282q.399 0 .682.282.282.283.282.69 0 .398-.282.68-.283.283-.682.283-.413 0-.689-.275-.275-.283-.275-.689" fill="#1a1a1a" style="paint-order:fill markers stroke"/>
	<path aria-label="ya" d="m378.37 186.58.508-1.283-2.879-7.062h-.877v-.776h3.545v.776h-1.232l2.168 5.3 2.168-5.3h-1.153v-.776h2.893v.776h-.863l-3.531 8.671q-.363.9-.805 1.226-.442.333-1.247.333-.34 0-.703-.058-.356-.058-.718-.167v-1.471h.681q.044.493.247.703.21.217.645.217.399 0 .638-.224.247-.218.515-.885m11.093-3.836v-1.631h-1.718q-.994 0-1.48.428-.485.428-.485 1.312 0 .805.493 1.276.493.472 1.334.472.834 0 1.341-.515.515-.515.515-1.342m1.334-2.392v4.046h1.19v.768h-2.524v-.834q-.442.537-1.022.79-.58.254-1.356.254-1.284 0-2.038-.681-.754-.682-.754-1.842 0-1.196.863-1.856t2.436-.66h1.871v-.53q0-.877-.536-1.355-.53-.486-1.494-.486-.798 0-1.269.363-.471.362-.587 1.073h-.69v-1.56q.697-.296 1.35-.441.66-.153 1.283-.153 1.602 0 2.436.798.841.79.841 2.306z" fill="#1a1a1a" style="paint-order:fill markers stroke"/>
	<path aria-label="na" d="M444.06 185.16v-.769h1.204v-6.163h-1.277v-.775h2.61v1.37q.37-.783.958-1.182.594-.399 1.377-.399 1.276 0 1.878.733.602.732.602 2.284v4.133h1.19v.768h-3.684v-.768h1.153v-3.713q0-1.414-.348-1.936-.348-.529-1.226-.529-.928 0-1.414.682-.485.674-.485 1.972v3.524h1.16v.768zm14.864-2.422v-1.631h-1.718q-.994 0-1.48.428-.485.427-.485 1.312 0 .805.493 1.276t1.334.471q.834 0 1.341-.514.515-.515.515-1.342m1.334-2.392v4.046h1.19v.768h-2.524v-.834q-.442.537-1.022.79t-1.356.254q-1.284 0-2.038-.681t-.754-1.842q0-1.196.863-1.856t2.436-.66h1.871v-.53q0-.877-.536-1.355-.53-.486-1.494-.486-.798 0-1.269.363-.471.362-.587 1.073h-.69v-1.56q.697-.296 1.35-.441.66-.153 1.283-.153 1.602 0 2.436.798.841.79.841 2.306" fill="#1a1a1a" style="paint-order:fill markers stroke"/>
	<path aria-label="hi . . . ." d="M527.64 185.2v-.769h1.204v-9.744h-1.277v-.769h2.61v4.945q.37-.783.958-1.182.594-.399 1.377-.399 1.276 0 1.878.733.602.732.602 2.284v4.132h1.19v.77h-3.684v-.77h1.153v-3.712q0-1.414-.348-1.929-.341-.522-1.226-.522-.928 0-1.414.675-.485.674-.485 1.965v3.523h1.16v.769zm10.397-10.1q0-.334.24-.58.246-.247.587-.247.333 0 .572.247.247.246.247.58 0 .34-.24.58t-.58.24-.587-.24q-.239-.24-.239-.58m1.704 9.332h1.262v.768h-3.872v-.768h1.276v-6.163h-1.276v-.776h2.61zm7.722.014q0-.406.275-.689.276-.282.69-.282.398 0 .68.282.283.283.283.69 0 .398-.282.68-.283.283-.682.283-.413 0-.689-.275-.275-.283-.275-.689m9.44 0q0-.406.276-.689.275-.282.688-.282.4 0 .682.282.283.283.283.69 0 .398-.283.68t-.682.283q-.413 0-.688-.275-.276-.283-.276-.689m9.44 0q0-.406.276-.689.275-.282.689-.282.399 0 .681.282.283.283.283.69 0 .398-.283.68-.282.283-.681.283-.414 0-.69-.275-.275-.283-.275-.689m9.44 0q0-.406.276-.689t.689-.282q.399 0 .682.282.282.283.282.69 0 .398-.282.68-.283.283-.682.283-.413 0-.689-.275-.275-.283-.275-.689" fill="#1a1a1a" style="paint-order:fill markers stroke"/>
	<path aria-label="yo" d="m728.52 186.38.508-1.283-2.879-7.063h-.877v-.775h3.545v.776h-1.232l2.168 5.3 2.168-5.3h-1.153v-.776h2.893v.776h-.863l-3.531 8.671q-.363.9-.805 1.226-.442.333-1.247.333-.34 0-.703-.058-.356-.058-.718-.167v-1.471h.681q.044.493.247.703.21.217.645.217.399 0 .638-.224.247-.218.515-.885m9.65-1.921q1.074 0 1.618-.849.55-.848.55-2.501t-.55-2.494q-.544-.849-1.617-.849t-1.625.849q-.543.84-.543 2.494 0 1.653.55 2.501.552.849 1.618.849m0 .717q-1.682 0-2.704-1.109-1.022-1.116-1.022-2.958t1.015-2.951q1.022-1.11 2.712-1.11t2.704 1.11q1.022 1.11 1.022 2.95t-1.022 2.96q-1.015 1.108-2.704 1.108" fill="#1a1a1a" style="paint-order:fill markers stroke"/>
</svg>
