<?xml version="1.0" encoding="utf-8"?>
<svg xmlns="http://www.w3.org/2000/svg" xmlns:cc="http://creativecommons.org/ns#" xmlns:dc="http://purl.org/dc/elements/1.1/" xmlns:rdf="http://www.w3.org/1999/02/22-rdf-syntax-ns#" xmlns:svg="http://www.w3.org/2000/svg" height="188.46123" id="svg175" version="1.2" width="800" viewBox="0 0 800 188.46123">
	<title id="title1">Title</title>
	<defs id="defs175"/>
	<desc id="desc1">Generated by MuseScore 2.3.2</desc>
	<polyline class="StaffLines" fill="none" id="polyline1" points="28.3465,63.3465 567.094,63.3465" stroke="#000000" stroke-linejoin="bevel" stroke-width="0.4" transform="matrix(1.4849257,0,0,1.4849257,-42.092446,-81.698228)"/>
	<polyline class="StaffLines" fill="none" id="polyline2" points="28.3465,68.3465 567.094,68.3465" stroke="#000000" stroke-linejoin="bevel" stroke-width="0.4" transform="matrix(1.4849257,0,0,1.4849257,-42.092446,-81.698228)"/>
	<polyline class="StaffLines" fill="none" id="polyline3" points="28.3465,73.3465 567.094,73.3465" stroke="#000000" stroke-linejoin="bevel" stroke-width="0.4" transform="matrix(1.4849257,0,0,1.4849257,-42.092446,-81.698228)"/>
	<polyline class="StaffLines" fill="none" id="polyline4" points="28.3465,78.3465 567.094,78.3465" stroke="#000000" stroke-linejoin="bevel" stroke-width="0.4" transform="matrix(1.4849257,0,0,1.4849257,-42.092446,-81.698228)"/>
	<polyline class="StaffLines" fill="none" id="polyline5" points="28.3465,83.3465 567.094,83.3465" stroke="#000000" stroke-linejoin="bevel" stroke-width="0.4" transform="matrix(1.4849257,0,0,1.4849257,-42.092446,-81.698228)"/>
	<polyline class="StaffLines" fill="none" id="polyline6" points="28.3465,158.347 567.094,158.347" stroke="#000000" stroke-linejoin="bevel" stroke-width="0.4" transform="matrix(1.4849257,0,0,1.4849257,-42.092446,-111.39674)"/>
	<polyline class="StaffLines" fill="none" id="polyline7" points="28.3465,163.347 567.094,163.347" stroke="#000000" stroke-linejoin="bevel" stroke-width="0.4" transform="matrix(1.4849257,0,0,1.4849257,-42.092446,-111.39674)"/>
	<polyline class="StaffLines" fill="none" id="polyline8" points="28.3465,168.347 567.094,168.347" stroke="#000000" stroke-linejoin="bevel" stroke-width="0.4" transform="matrix(1.4849257,0,0,1.4849257,-42.092446,-111.39674)"/>
	<polyline class="StaffLines" fill="none" id="polyline9" points="28.3465,173.347 567.094,173.347" stroke="#000000" stroke-linejoin="bevel" stroke-width="0.4" transform="matrix(1.4849257,0,0,1.4849257,-42.092446,-111.39674)"/>
	<polyline class="StaffLines" fill="none" id="polyline10" points="28.3465,178.347 567.094,178.347" stroke="#000000" stroke-linejoin="bevel" stroke-width="0.4" transform="matrix(1.4849257,0,0,1.4849257,-42.092446,-111.39674)"/>
	<path class="SlurSegment" d="m 539.20399,113.32003 c 29.29016,-15.441743 180.63809,-9.38324 198.42007,8.65415 -17.84732,-16.85242 -169.19674,-22.909433 -198.42007,-8.65415" fill-rule="evenodd" id="path23" stroke="#000000" stroke-linecap="round" stroke-linejoin="round" stroke-width="0.519724"/>
	<polyline class="BarLine" id="polyline49" points="566.694,158.347 566.694,178.347" stroke="#000000" stroke-linejoin="bevel" stroke-width="0.8" transform="matrix(1.4849257,0,0,1.4849257,-42.092446,-111.39674)"/>
	<polyline class="BarLine" id="polyline50" points="484.954,158.347 484.954,178.347" stroke="#000000" stroke-linejoin="bevel" stroke-width="0.8" transform="matrix(1.4849257,0,0,1.4849257,-42.092446,-111.39674)"/>
	<polyline class="BarLine" id="polyline51" points="378.047,158.347 378.047,178.347" stroke="#000000" stroke-linejoin="bevel" stroke-width="0.8" transform="matrix(1.4849257,0,0,1.4849257,-42.092446,-111.39674)"/>
	<polyline class="BarLine" id="polyline52" points="276.267,158.347 276.267,178.347" stroke="#000000" stroke-linejoin="bevel" stroke-width="0.8" transform="matrix(1.4849257,0,0,1.4849257,-83.670365,-111.39674)"/>
	<polyline class="BarLine" id="polyline53" points="170.912,158.347 170.912,178.347" stroke="#000000" stroke-linejoin="bevel" stroke-width="0.8" transform="matrix(1.4849257,0,0,1.4849257,-42.092446,-111.39674)"/>
	<polyline class="BarLine" id="polyline57" points="335.771,63.3465 335.771,83.3465" stroke="#000000" stroke-linejoin="bevel" stroke-width="0.8" transform="matrix(1.4849257,0,0,1.4849257,47.003095,-81.698228)"/>
	<polyline class="BarLine" id="polyline58" points="250.238,63.3465 250.238,83.3465" stroke="#000000" stroke-linejoin="bevel" stroke-width="0.8" transform="matrix(1.4849257,0,0,1.4849257,47.003095,-81.698228)"/>
	<polyline class="BarLine" id="polyline59" points="169.099,63.3465 169.099,83.3465" stroke="#000000" stroke-linejoin="bevel" stroke-width="0.8" transform="matrix(1.4849257,0,0,1.4849257,17.304581,-81.698228)"/>
	<polyline class="Stem" id="polyline60" points="497.612,174.907 497.612,158.347" stroke="#000000" stroke-linecap="round" stroke-linejoin="bevel" stroke-width="0.65" transform="matrix(1.4849257,0,0,1.4849257,-0.51452736,-111.39674)"/>
	<polyline class="Stem" id="polyline61" points="435.8,172.407 435.8,155.847" stroke="#000000" stroke-linecap="round" stroke-linejoin="bevel" stroke-width="0.65" transform="matrix(1.4849257,0,0,1.4849257,-42.092446,-111.39674)"/>
	<polyline class="Stem" id="polyline62" points="390.705,169.907 390.705,153.347" stroke="#000000" stroke-linecap="round" stroke-linejoin="bevel" stroke-width="0.65" transform="matrix(1.4849257,0,0,1.4849257,-42.092446,-111.39674)"/>
	<polyline class="Stem" id="polyline63" points="336.415,169.907 336.415,154.597" stroke="#000000" stroke-linecap="round" stroke-linejoin="bevel" stroke-width="0.65" transform="matrix(1.4849257,0,0,1.4849257,-42.092446,-111.39674)"/>
	<polyline class="Stem" id="polyline64" points="288.925,169.907 288.925,154.597" stroke="#000000" stroke-linecap="round" stroke-linejoin="bevel" stroke-width="0.65" transform="matrix(1.4849257,0,0,1.4849257,-42.092446,-111.39674)"/>
	<polyline class="Stem" id="polyline65" points="222.033,169.286 222.033,185.847" stroke="#000000" stroke-linecap="round" stroke-linejoin="bevel" stroke-width="0.65" transform="matrix(1.4849257,0,0,1.4849257,-42.092446,-111.39674)"/>
	<polyline class="Stem" id="polyline66" points="177.637,166.786 177.637,183.347" stroke="#000000" stroke-linecap="round" stroke-linejoin="bevel" stroke-width="0.65" transform="matrix(1.4849257,0,0,1.4849257,-42.092446,-111.39674)"/>
	<polyline class="Stem" id="polyline67" points="128.025,166.786 128.025,183.347" stroke="#000000" stroke-linecap="round" stroke-linejoin="bevel" stroke-width="0.65" transform="matrix(1.4849257,0,0,1.4849257,-42.092446,-111.39674)"/>
	<polyline class="Stem" id="polyline68" points="85.2121,166.786 85.2121,183.347" stroke="#000000" stroke-linecap="round" stroke-linejoin="bevel" stroke-width="0.65" transform="matrix(1.4849257,0,0,1.4849257,-42.092446,-111.39674)"/>
	<polyline class="Stem" id="polyline69" points="493.695,64.2855 493.695,80.8465" stroke="#000000" stroke-linecap="round" stroke-linejoin="bevel" stroke-width="0.65" transform="matrix(1.4849257,0,0,1.4849257,-12.393932,-81.698228)"/>
	<polyline class="Stem" id="polyline70" points="422.371,64.2855 422.371,80.8465" stroke="#000000" stroke-linecap="round" stroke-linejoin="bevel" stroke-width="0.65" transform="matrix(1.4849257,0,0,1.4849257,17.304581,-81.698228)"/>
	<polyline class="Stem" id="polyline71" points="355.246,71.7856 355.246,88.3465" stroke="#000000" stroke-linecap="round" stroke-linejoin="bevel" stroke-width="0.65" transform="matrix(1.4849257,0,0,1.4849257,47.003095,-81.698228)"/>
	<polyline class="Stem" id="polyline72" points="256.963,71.7856 256.963,87.0965" stroke="#000000" stroke-linecap="round" stroke-linejoin="bevel" stroke-width="0.65" transform="matrix(1.4849257,0,0,1.4849257,97.49057,-81.698228)"/>
	<polyline class="Stem" id="polyline73" points="175.824,71.7856 175.824,87.0965" stroke="#000000" stroke-linecap="round" stroke-linejoin="bevel" stroke-width="0.65" transform="matrix(1.4849257,0,0,1.4849257,64.822203,-81.698228)"/>
	<polyline class="Stem" id="polyline74" points="127.118,71.7856 127.118,88.3465" stroke="#000000" stroke-linecap="round" stroke-linejoin="bevel" stroke-width="0.65" transform="matrix(1.4849257,0,0,1.4849257,-42.092446,-81.698228)"/>
	<polyline class="Stem" id="polyline75" points="85.2121,71.7856 85.2121,88.3465" stroke="#000000" stroke-linecap="round" stroke-linejoin="bevel" stroke-width="0.65" transform="matrix(1.4849257,0,0,1.4849257,-42.092446,-81.698228)"/>
	<path class="Note" d="m 735.62996,145.63944 c 0.92808,0 1.71657,0.23908 2.36697,0.71871 0.58803,0.52566 0.88056,1.18348 0.88056,1.97198 0,1.33049 -0.6801,2.57486 -2.04177,3.73607 -1.39138,1.15973 -2.88373,1.74033 -4.47705,1.74033 -0.92808,0 -1.70915,-0.24055 -2.34322,-0.72019 -0.60436,-0.52566 -0.9058,-1.18348 -0.9058,-1.97198 0,-1.33049 0.69643,-2.57486 2.08929,-3.73607 1.36019,-1.15973 2.83769,-1.73885 4.43102,-1.73885" id="path75" style="stroke-width:1.48493"/>
	<path class="Note" d="m 602.26581,141.92713 c 0.92808,0 1.71658,0.23907 2.36549,0.7187 0.58803,0.52567 0.88204,1.18349 0.88204,1.97198 0,1.3305 -0.68009,2.57486 -2.04177,3.73608 -1.39137,1.15972 -2.88521,1.74033 -4.47854,1.74033 -0.92807,0 -1.70914,-0.24056 -2.34321,-0.72019 -0.60288,-0.52566 -0.90432,-1.18349 -0.90432,-1.97198 0,-1.33049 0.69643,-2.57486 2.08781,-3.73607 1.36167,-1.15973 2.83918,-1.73885 4.4325,-1.73885" id="path76" style="stroke-width:1.48493"/>
	<path class="Note" d="m 535.30309,138.21481 c 0.92808,0 1.71657,0.23908 2.36697,0.71871 0.58803,0.52566 0.88204,1.18348 0.88204,1.97198 0,1.33049 -0.68158,2.57486 -2.04177,3.73607 -1.39286,1.15973 -2.88521,1.74034 -4.47853,1.74034 -0.92808,0 -1.70915,-0.24056 -2.34322,-0.72019 -0.60288,-0.52567 -0.9058,-1.18349 -0.9058,-1.97199 0,-1.33049 0.69643,-2.57486 2.08929,-3.73607 1.36019,-1.15973 2.83769,-1.73885 4.43102,-1.73885" id="path77" style="stroke-width:1.48493"/>
	<path class="Note" d="m 454.68647,138.21481 c 0.92808,0 1.71658,0.23908 2.36697,0.71871 0.58803,0.52566 0.88205,1.18348 0.88205,1.97198 0,1.33049 -0.68158,2.57486 -2.04177,3.73607 -1.39286,1.15973 -2.88521,1.74034 -4.47854,1.74034 -0.92808,0 -1.70915,-0.24056 -2.34321,-0.72019 -0.60288,-0.52567 -0.90581,-1.18349 -0.90581,-1.97199 0,-1.33049 0.69643,-2.57486 2.08929,-3.73607 1.3602,-1.15973 2.8377,-1.73885 4.43102,-1.73885" id="path78" style="stroke-width:1.48493"/>
	<path class="Note" d="m 384.16735,138.21481 c 0.92808,0 1.71658,0.23908 2.36697,0.71871 0.58803,0.52566 0.88056,1.18348 0.88056,1.97198 0,1.33049 -0.68009,2.57486 -2.04177,3.73607 -1.39137,1.15973 -2.88372,1.74034 -4.47705,1.74034 -0.92808,0 -1.70915,-0.24056 -2.34321,-0.72019 -0.60437,-0.52567 -0.90581,-1.18349 -0.90581,-1.97199 0,-1.33049 0.69643,-2.57486 2.08929,-3.73607 1.36019,-1.15973 2.8377,-1.73885 4.43102,-1.73885" id="path79" style="stroke-width:1.48493"/>
	<path class="Note" d="m 293.64628,134.5025 c 0.92808,0 1.71806,0.23907 2.36697,0.7187 0.58803,0.52567 0.88205,1.18349 0.88205,1.97198 0,1.3305 -0.6801,2.57487 -2.04177,3.73608 -1.39286,1.15972 -2.88521,1.74033 -4.47854,1.74033 -0.92808,0 -1.70915,-0.24056 -2.34321,-0.72019 -0.60288,-0.52566 -0.90432,-1.18348 -0.90432,-1.97198 0,-1.33049 0.69643,-2.57486 2.0878,-3.73607 1.36168,-1.15973 2.8377,-1.73885 4.43102,-1.73885" id="path80" style="stroke-width:1.48493"/>
	<path class="Note" d="m 227.72301,130.79019 c 0.92807,0 1.71657,0.23907 2.36697,0.7187 0.58803,0.52566 0.88056,1.18349 0.88056,1.97198 0,1.33049 -0.6801,2.57486 -2.04177,3.73607 -1.39138,1.15973 -2.88373,1.74034 -4.47706,1.74034 -0.92807,0 -1.70915,-0.24056 -2.34321,-0.72019 -0.60436,-0.52567 -0.9058,-1.18349 -0.9058,-1.97198 0,-1.3305 0.69643,-2.57486 2.08929,-3.73608 1.36019,-1.15972 2.83769,-1.73884 4.43102,-1.73884" id="path81" style="stroke-width:1.48493"/>
	<path class="Note" d="m 154.05139,130.79019 c 0.92808,0 1.71806,0.23907 2.36697,0.7187 0.58803,0.52566 0.88205,1.18349 0.88205,1.97198 0,1.33049 -0.6801,2.57486 -2.04178,3.73607 -1.39286,1.15973 -2.88521,1.74034 -4.47853,1.74034 -0.92808,0 -1.70915,-0.24056 -2.34322,-0.72019 -0.60288,-0.52567 -0.90432,-1.18349 -0.90432,-1.97198 0,-1.3305 0.69495,-2.57486 2.08781,-3.73608 1.36168,-1.15972 2.83769,-1.73884 4.43102,-1.73884" id="path82" style="stroke-width:1.48493"/>
	<path class="Note" d="m 90.4783,130.79019 c 0.92808,0 1.71702,0.23907 2.36668,0.7187 0.58773,0.52566 0.8816,1.18349 0.8816,1.97198 0,1.33049 -0.68054,2.57486 -2.04177,3.73607 -1.39212,1.15973 -2.88477,1.74034 -4.47795,1.74034 -0.92807,0 -1.70915,-0.24056 -2.34336,-0.72019 -0.60332,-0.52567 -0.90491,-1.18349 -0.90491,-1.97198 0,-1.3305 0.69613,-2.57486 2.08825,-3.73608 1.36108,-1.15972 2.83829,-1.73884 4.43146,-1.73884" id="path83" style="stroke-width:1.48493"/>
	<path class="Note" d="m 726.74416,8.283071 c 0.92808,0 1.71658,0.239667 2.36697,0.719298 0.58803,0.525812 0.88205,1.183189 0.88205,1.97213 0,1.330196 -0.68158,2.575455 -2.04177,3.735479 -1.39286,1.160172 -2.88521,1.740184 -4.47854,1.740184 -0.92808,0 -1.70915,-0.239815 -2.34321,-0.719298 -0.60288,-0.52596 -0.90581,-1.183337 -0.90581,-1.97213 0,-1.330345 0.69643,-2.575455 2.08929,-3.735479 1.36019,-1.160172 2.8377,-1.740184 4.43102,-1.740184" id="path84" style="stroke-width:1.48493"/>
	<path class="Note" d="m 650.53184,8.283071 c 0.92807,0 1.71657,0.239667 2.36548,0.719298 0.58803,0.525812 0.88205,1.183189 0.88205,1.97213 0,1.330196 -0.6801,2.575455 -2.04177,3.735479 -1.39138,1.160172 -2.88522,1.740184 -4.47854,1.740184 -0.92808,0 -1.70915,-0.239815 -2.34321,-0.719298 -0.60288,-0.52596 -0.90432,-1.183337 -0.90432,-1.97213 0,-1.330345 0.69643,-2.575455 2.0878,-3.735479 1.36168,-1.160172 2.83918,-1.740184 4.43251,-1.740184" id="path85" style="stroke-width:1.48493"/>
	<path class="Note" d="m 580.55471,19.420014 c 0.92808,0 1.71658,0.239667 2.36697,0.719298 0.58803,0.525812 0.88057,1.183188 0.88057,1.972129 0,1.330197 -0.6801,2.575455 -2.04178,3.735479 -1.39137,1.160173 -2.88372,1.740185 -4.47705,1.740185 -0.92808,0 -1.70915,-0.239816 -2.34321,-0.719298 -0.60437,-0.525961 -0.90581,-1.183337 -0.90581,-1.97213 0,-1.330196 0.69643,-2.575455 2.08929,-3.735479 1.3602,-1.160172 2.8377,-1.740184 4.43102,-1.740184" id="path86" style="stroke-width:1.48493"/>
	<path class="Note" d="m 485.09775,19.420014 c 0.92808,0 1.71657,0.239667 2.36697,0.719298 0.58803,0.525812 0.88205,1.183188 0.88205,1.972129 0,1.330197 -0.68158,2.575455 -2.04178,3.735479 -1.39286,1.160173 -2.88521,1.740185 -4.47853,1.740185 -0.92808,0 -1.70915,-0.239816 -2.34321,-0.719298 -0.60288,-0.525961 -0.90432,-1.183337 -0.90432,-1.97213 0,-1.330196 0.69494,-2.575455 2.0878,-3.735479 1.36019,-1.160172 2.83769,-1.740184 4.43102,-1.740184" id="path87" style="stroke-width:1.48493"/>
	<path class="Note" d="m 331.94548,19.420014 c 0.92808,0 1.71658,0.239667 2.36549,0.719298 0.58803,0.525812 0.88205,1.183188 0.88205,1.972129 0,1.330197 -0.6801,2.575455 -2.04178,3.735479 -1.39137,1.160173 -2.88521,1.740185 -4.47705,1.740185 -0.92808,0 -1.71063,-0.239816 -2.34469,-0.719298 -0.60288,-0.525961 -0.90432,-1.183337 -0.90432,-1.97213 0,-1.330196 0.69643,-2.575455 2.0878,-3.735479 1.36168,-1.160172 2.83918,-1.740184 4.4325,-1.740184" id="path88" style="stroke-width:1.48493"/>
	<path class="Note" d="m 152.70605,19.420014 c 0.92807,0 1.71657,0.239667 2.36548,0.719298 0.58803,0.525812 0.88205,1.183188 0.88205,1.972129 0,1.330197 -0.6801,2.575455 -2.04178,3.735479 -1.39137,1.160173 -2.88521,1.740185 -4.47705,1.740185 -0.92807,0 -1.70915,-0.239816 -2.34469,-0.719298 -0.60288,-0.525961 -0.90432,-1.183337 -0.90432,-1.97213 0,-1.330196 0.69643,-2.575455 2.0878,-3.735479 1.36168,-1.160172 2.83918,-1.740184 4.43251,-1.740184" id="path89" style="stroke-width:1.48493"/>
	<path class="Note" d="m 90.4783,19.420014 c 0.92808,0 1.71702,0.239667 2.36668,0.719298 0.58773,0.525812 0.8816,1.183188 0.8816,1.972129 0,1.330197 -0.68054,2.575455 -2.04177,3.735479 -1.39212,1.160173 -2.88477,1.740185 -4.47795,1.740185 -0.92807,0 -1.70915,-0.239816 -2.34336,-0.719298 -0.60332,-0.525961 -0.90491,-1.183337 -0.90491,-1.97213 0,-1.330196 0.69613,-2.575455 2.08825,-3.735479 1.36108,-1.160172 2.83829,-1.740184 4.43146,-1.740184" id="path90" style="stroke-width:1.48493"/>
	<path class="Clef" d="m 15.656611,138.40043 c 0,0 0.06192,0 0.185616,0 0.07736,-0.0163 0.139286,-0.0238 0.185615,-0.0238 2.165467,0 3.944408,0.76622 5.336526,2.29718 1.392118,1.49978 2.088103,3.25644 2.088103,5.26703 0,2.50507 -1.028608,4.53942 -3.085824,6.10156 -0.541404,0.4336 -1.252981,0.78107 -2.134581,1.0439 0.108251,1.25328 0.162451,2.266 0.162451,3.03965 0,0.15443 -0.02331,0.7187 -0.06964,1.6943 -0.07737,1.79379 -0.696133,3.34851 -1.856157,4.66266 -1.113694,1.29931 -2.505812,1.94971 -4.176354,1.94971 -1.56229,0 -2.8924864,-0.54942 -3.9907374,-1.64827 -1.113695,-1.12854 -1.670542,-2.48131 -1.670542,-4.05978 0,-0.83453 0.324753,-1.5473 0.974408,-2.13384 0.649655,-0.57318 1.40771,-0.85977 2.273867,-0.85977 0.7733494,0 1.4230044,0.30292 1.9489654,0.9058 0.541404,0.55685 0.812106,1.25328 0.812106,2.08781 0,0.74246 -0.270702,1.38395 -0.812106,1.92595 -0.541404,0.54199 -1.191059,0.81225 -1.9489654,0.81225 -0.30931,0 -0.603325,-0.0549 -0.881749,-0.16334 0.850863,1.25328 1.9800004,1.87991 3.3875614,1.87991 1.330197,0 2.420726,-0.54199 3.27144,-1.6245 0.897192,-1.1137 1.384396,-2.42043 1.461761,-3.92021 0.03089,-0.92808 0.04633,-1.45374 0.04633,-1.57847 0,-1.08251 -0.03861,-1.97199 -0.115972,-2.66842 -0.958965,0.15444 -1.817401,0.23314 -2.575455,0.23314 -2.691428,0 -4.9805904,-1.06766 -6.8677824,-3.20299 -1.856157,-2.15017 -2.784235,-4.70127 -2.784235,-7.65627 0,-0.61922 0.0542,-1.24437 0.162451,-1.87992 0.123694,-0.52566 0.270702,-1.09736 0.440874,-1.71657 0.09281,-0.3549 0.355788,-0.92066 0.788793,-1.69282 0.154729,-0.23313 0.328762,-0.52269 0.522099,-0.87017 0.193338,-0.34895 0.328763,-0.57615 0.405979,-0.68455 0.185616,-0.38756 0.556847,-0.91323 1.113694,-1.57847 0.15473,-0.16928 0.31718,-0.35935 0.487353,-0.56873 0.170024,-0.20789 0.313171,-0.38162 0.429143,-0.52121 0.115973,-0.13958 0.201059,-0.24798 0.255259,-0.3252 0.0542,-0.0772 0.491065,-0.58803 1.3108934,-1.53095 0.185615,-0.20195 0.371231,-0.40984 0.556847,-0.62664 0.185615,-0.2168 0.336484,-0.39054 0.452457,-0.5227 0.115972,-0.13067 0.204919,-0.21977 0.266841,-0.2658 -0.696133,-2.3046 -1.136859,-4.14591 -1.322475,-5.52244 -0.123843,-1.09884 -0.185616,-2.60604 -0.185616,-4.52457 0,-1.68539 0.386675,-3.26386 1.160024,-4.73245 0.742463,-1.51611 1.794236,-2.76197 3.155467,-3.73608 0.07737,-0.0624 0.170173,-0.0936 0.278424,-0.0936 0.139286,0 0.239815,0.0312 0.301588,0.0936 1.036478,1.25328 1.933522,2.88521 2.691428,4.8958 0.773498,2.01059 1.160172,3.84299 1.160172,5.49868 0,1.85616 -0.440874,3.59649 -1.322474,5.221 -1.005444,1.71658 -2.304754,3.49552 -3.89793,5.33534 0.402118,1.26813 0.943521,3.26387 1.624063,5.98722 m 2.459482,13.50243 c 1.005295,-0.37123 1.794236,-0.99787 2.366526,-1.87843 0.618769,-0.85086 0.928079,-1.81013 0.928079,-2.87779 0,-1.37652 -0.464039,-2.59862 -1.392118,-3.66628 -0.958965,-1.09736 -2.173189,-1.71657 -3.642671,-1.85616 0.835271,4.08355 1.415283,7.51076 1.740184,10.27866 M 6.9095116,145.19838 c 0,1.91704 0.773349,3.60391 2.320196,5.05766 1.5777344,1.40771 3.3565264,2.11156 5.3363784,2.11156 0.804384,0 1.593325,-0.0624 2.366674,-0.18562 -0.30931,-2.93866 -0.920357,-6.45794 -1.832992,-10.55782 -1.098251,0.12474 -1.97213,0.51082 -2.621785,1.16122 -0.649655,0.68009 -0.974557,1.44631 -0.974557,2.29718 0,1.46859 0.788941,2.6595 2.366675,3.57273 0.123694,0.13958 0.185616,0.28659 0.185616,0.44102 0,0.15443 -0.06192,0.29401 -0.185616,0.41726 -0.123694,0.13959 -0.270702,0.20938 -0.440875,0.20938 -0.01544,0 -0.100529,-0.0163 -0.255258,-0.0475 -1.113695,-0.60288 -1.964409,-1.37653 -2.552142,-2.31945 -0.57229,-1.02163 -0.8584364,-2.04178 -0.8584364,-3.06341 0,-1.33049 0.4175614,-2.53625 1.2528324,-3.61876 0.866157,-1.08251 1.995443,-1.77894 3.387561,-2.0878 -0.541404,-2.16651 -0.982278,-3.85933 -1.322623,-5.08142 -0.30931,0.3549 -0.680542,0.77662 -1.113694,1.26367 -0.433005,0.48706 -0.688263,0.78553 -0.765628,0.89393 -0.695985,0.89689 -1.2296674,1.60075 -1.6008984,2.11156 -0.665099,0.91175 -1.152451,1.69282 -1.461761,2.34321 -0.324754,0.74247 -0.610899,1.54581 -0.858436,2.41301 -0.247537,0.83453 -0.371231,1.724 -0.371231,2.66841 m 9.6751814,-29.49062 c -1.454039,0.71127 -2.590898,1.7329 -3.410725,3.0634 -0.850714,1.37652 -1.275997,2.85402 -1.275997,4.43102 0,1.39286 0.347918,3.27129 1.044051,5.63826 1.392118,-1.68539 2.436169,-3.24011 3.132303,-4.66415 0.726871,-1.51463 1.09038,-3.0931 1.09038,-4.73246 0,-1.23694 -0.193337,-2.4828 -0.580012,-3.73607" id="path93" style="stroke-width:1.48493"/>
	<path class="Clef" d="m 15.656611,27.030258 c 0,0 0.06192,0 0.185616,0 0.07736,-0.01544 0.139286,-0.02317 0.185615,-0.02317 2.165467,0 3.944408,0.765628 5.336526,2.296883 1.392118,1.500517 2.088103,3.255996 2.088103,5.266883 0,2.505812 -1.028608,4.539863 -3.085824,6.102153 -0.541404,0.433153 -1.252981,0.781071 -2.134581,1.044052 0.108251,1.25298 0.162451,2.266145 0.162451,3.039494 0,0.154729 -0.02331,0.719304 -0.06964,1.693704 -0.07737,1.79423 -0.696133,3.3488 -1.856157,4.66356 -1.113694,1.29931 -2.505812,1.94897 -4.176354,1.94897 -1.56229,0 -2.8924864,-0.54914 -3.9907374,-1.64723 -1.113695,-1.12928 -1.670542,-2.48265 -1.670542,-4.06038 0,-0.83527 0.324753,-1.54685 0.974408,-2.13458 0.649655,-0.572295 1.40771,-0.85844 2.273867,-0.85844 0.7733494,0 1.4230044,0.301588 1.9489654,0.90477 0.541404,0.55685 0.812106,1.25298 0.812106,2.08825 0,0.74246 -0.270702,1.3844 -0.812106,1.9258 -0.541404,0.54126 -1.191059,0.81196 -1.9489654,0.81196 -0.30931,0 -0.603325,-0.054 -0.881749,-0.1623 0.850863,1.25283 1.9800004,1.87932 3.3875614,1.87932 1.330197,0 2.420726,-0.54141 3.27144,-1.62421 0.897192,-1.1137 1.384396,-2.42073 1.461761,-3.9211 0.03089,-0.92808 0.04633,-1.454043 0.04633,-1.577737 0,-1.082808 -0.03861,-1.97213 -0.115972,-2.668263 -0.958965,0.154729 -1.817401,0.232094 -2.575455,0.232094 -2.691428,0 -4.9805904,-1.067365 -6.8677824,-3.201945 -1.856157,-2.150024 -2.784235,-4.702166 -2.784235,-7.656574 0,-0.618769 0.0542,-1.245259 0.162451,-1.879322 0.123694,-0.525961 0.270702,-1.098251 0.440874,-1.71702 0.09281,-0.355788 0.355788,-0.920357 0.788793,-1.693706 0.154729,-0.232094 0.328762,-0.5221 0.522099,-0.870018 0.193338,-0.348066 0.328763,-0.576299 0.405979,-0.684551 0.185616,-0.386674 0.556847,-0.912635 1.113694,-1.577733 0.15473,-0.170173 0.31718,-0.359649 0.487353,-0.56843 0.170024,-0.20878 0.313171,-0.382813 0.429143,-0.522099 0.115973,-0.139138 0.201059,-0.247389 0.255259,-0.324754 0.0542,-0.07736 0.491065,-0.587733 1.3108934,-1.531404 0.185615,-0.201059 0.371231,-0.409839 0.556847,-0.626341 0.185615,-0.216651 0.336484,-0.390684 0.452457,-0.5221 0.115972,-0.131416 0.204919,-0.220363 0.266841,-0.266841 -0.696133,-2.304753 -1.136859,-4.145467 -1.322475,-5.521993 -0.123843,-1.098251 -0.185616,-2.606342 -0.185616,-4.52442 0,-1.685985 0.386675,-3.263719 1.160024,-4.733201 C 12.40834,2.312477 13.460113,1.067218 14.821344,0.09281 14.898714,0.03089 14.991517,0 15.099768,0 c 0.139286,0 0.239815,0.03089 0.301588,0.09281 1.036478,1.252832 1.933522,2.884765 2.691428,4.895503 0.773498,2.010886 1.160172,3.843878 1.160172,5.498977 0,1.856157 -0.440874,3.596193 -1.322474,5.220404 -1.005444,1.716871 -2.304754,3.495812 -3.89793,5.336378 0.402118,1.268423 0.943521,3.263866 1.624063,5.986181 m 2.459482,13.503468 c 1.005295,-0.371231 1.794236,-0.997573 2.366526,-1.879322 0.618769,-0.850713 0.928079,-1.809678 0.928079,-2.877043 0,-1.376675 -0.464039,-2.59862 -1.392118,-3.665836 -0.958965,-1.098251 -2.173189,-1.71702 -3.642671,-1.856157 0.835271,4.083545 1.415283,7.509714 1.740184,10.278358 M 6.9095116,33.828391 c 0,1.918079 0.773349,3.604063 2.320196,5.058102 1.5777344,1.407561 3.3565264,2.111268 5.3363784,2.111268 0.804384,0 1.593325,-0.06177 2.366674,-0.185616 -0.30931,-2.938816 -0.920357,-6.457793 -1.832992,-10.556782 -1.098251,0.123694 -1.97213,0.510369 -2.621785,1.160024 -0.649655,0.680541 -0.974557,1.446317 -0.974557,2.297031 0,1.469483 0.788941,2.660542 2.366675,3.573028 0.123694,0.139287 0.185616,0.286146 0.185616,0.440875 0,0.154729 -0.06192,0.293867 -0.185616,0.41771 -0.123694,0.139137 -0.270702,0.20878 -0.440875,0.20878 -0.01544,0 -0.100529,-0.01544 -0.255258,-0.04648 -1.113695,-0.603177 -1.964409,-1.376526 -2.552142,-2.320196 -0.57229,-1.020887 -0.8584364,-2.041773 -0.8584364,-3.06266 0,-1.330196 0.4175614,-2.536698 1.2528324,-3.619506 0.866157,-1.082659 1.995443,-1.778793 3.387561,-2.088103 -0.541404,-2.165467 -0.982278,-3.859321 -1.322623,-5.081267 -0.30931,0.355788 -0.680542,0.777359 -1.113694,1.264563 -0.433005,0.487204 -0.688263,0.784932 -0.765628,0.893183 -0.695985,0.897192 -1.2296674,1.601047 -1.6008984,2.111416 -0.665099,0.912635 -1.152451,1.693706 -1.461761,2.343361 -0.324754,0.742463 -0.610899,1.546847 -0.858436,2.413004 -0.247537,0.835271 -0.371231,1.724741 -0.371231,2.668263 M 16.584693,4.338656 c -1.454039,0.711576 -2.590898,1.732463 -3.410725,3.062659 -0.850714,1.376675 -1.275997,2.853879 -1.275997,4.431612 0,1.392118 0.347918,3.27144 1.044051,5.638115 1.392118,-1.685985 2.436169,-3.240554 3.132303,-4.663558 0.726871,-1.515961 1.09038,-3.093694 1.09038,-4.733201 0,-1.237537 -0.193337,-2.482647 -0.580012,-3.735627" id="path94" style="stroke-width:1.48493"/>
	<path class="KeySig" d="m 49.837818,136.38093 -0.371231,-18.44575 c 0,-0.29401 0.231945,-0.44102 0.695985,-0.44102 0.448596,0 0.672968,0.14701 0.672968,0.44102 l -0.232094,10.07077 c 0.525961,-0.52715 0.982278,-0.89838 1.368953,-1.11369 0.355788,-0.18562 0.804236,-0.27917 1.34564,-0.27917 0.757906,0 1.411421,0.29847 1.960547,0.89392 0.549125,0.59546 0.823688,1.28001 0.823688,2.05217 0,1.00678 -0.487204,2.06553 -1.461612,3.17923 -0.355788,0.38608 -0.746472,0.77661 -1.171755,1.1716 -0.425431,0.39499 -0.943522,0.85829 -1.554569,1.39286 -0.610898,0.53309 -1.009304,0.88502 -1.194919,1.05579 -0.278424,0.23165 -0.425283,0.34747 -0.440726,0.34747 h -0.162451 c -0.185616,0 -0.278424,-0.1084 -0.278424,-0.3252 m 0.742463,-7.4469 -0.09281,6.58861 c 0.603177,-0.57169 1.214224,-1.51165 1.832993,-2.81839 0.61862,-1.30821 0.928078,-2.42488 0.928078,-3.35296 0,-0.46478 -0.07737,-0.88947 -0.232094,-1.27703 -0.154729,-0.38608 -0.398257,-0.57912 -0.73088,-0.57912 -0.332475,0 -0.630351,0.11582 -0.893183,0.34747 -0.26298,0.23165 -0.533682,0.59545 -0.812106,1.09142" id="path103" style="stroke-width:1.48493"/>
	<path class="KeySig" d="m 42.41319,147.51787 -0.371232,-18.44574 c 0,-0.29402 0.231946,-0.44103 0.695985,-0.44103 0.448596,0 0.67282,0.14701 0.67282,0.44103 l -0.231945,10.07076 c 0.52596,-0.52715 0.982278,-0.89838 1.368953,-1.11369 0.355788,-0.18562 0.804235,-0.27917 1.345639,-0.27917 0.757906,0 1.411422,0.29847 1.960548,0.89393 0.549125,0.59545 0.823688,1.28 0.823688,2.05216 0,1.00678 -0.487204,2.06554 -1.461761,3.17923 -0.35564,0.38608 -0.746324,0.77662 -1.171606,1.17161 -0.425432,0.39499 -0.943522,0.85828 -1.554569,1.39286 -0.610898,0.53309 -1.009304,0.88501 -1.19492,1.05578 -0.278423,0.23165 -0.425282,0.34747 -0.440874,0.34747 h -0.162303 c -0.185615,0 -0.278423,-0.1084 -0.278423,-0.3252 m 0.742463,-7.4469 -0.09281,6.58862 c 0.603177,-0.5717 1.214224,-1.51166 1.832844,-2.81839 0.618768,-1.30822 0.928078,-2.42489 0.928078,-3.35296 0,-0.46479 -0.07722,-0.88948 -0.231945,-1.27704 -0.154729,-0.38608 -0.398257,-0.57912 -0.730881,-0.57912 -0.332475,0 -0.630351,0.11582 -0.893331,0.34747 -0.262832,0.23165 -0.533534,0.59546 -0.811957,1.09142" id="path104" style="stroke-width:1.48493"/>
	<path class="KeySig" d="M 34.988561,132.66862 34.61733,114.22287 c 0,-0.29402 0.231945,-0.44102 0.695985,-0.44102 0.448596,0 0.67282,0.147 0.67282,0.44102 l -0.231946,10.07077 c 0.525961,-0.52715 0.982278,-0.89838 1.368953,-1.1137 0.355788,-0.18561 0.804236,-0.27916 1.34564,-0.27916 0.757906,0 1.411422,0.29847 1.960547,0.89392 0.549126,0.59546 0.823688,1.28001 0.823688,2.05217 0,1.00529 -0.487204,2.06553 -1.46176,3.17922 -0.35564,0.38608 -0.746324,0.77662 -1.171607,1.17161 -0.425431,0.39499 -0.943522,0.85829 -1.554568,1.39286 -0.610899,0.53309 -1.009304,0.88502 -1.19492,1.05578 -0.278424,0.23165 -0.425283,0.34748 -0.440875,0.34748 h -0.162302 c -0.185616,0 -0.278424,-0.1084 -0.278424,-0.3252 m 0.742463,-7.44691 -0.09281,6.58862 c 0.603177,-0.5717 1.214224,-1.51166 1.832844,-2.81839 0.618769,-1.30822 0.928079,-2.42488 0.928079,-3.35296 0,-0.46478 -0.07722,-0.88947 -0.231946,-1.27704 -0.154729,-0.38608 -0.398257,-0.57912 -0.73088,-0.57912 -0.332475,0 -0.630351,0.11583 -0.893331,0.34747 -0.262832,0.23165 -0.533534,0.59546 -0.811958,1.09142" id="path105" style="stroke-width:1.48493"/>
	<path class="KeySig" d="m 27.563933,143.80556 -0.371231,-18.44575 c 0,-0.29401 0.231945,-0.44102 0.695984,-0.44102 0.448596,0 0.67282,0.14701 0.67282,0.44102 l -0.231945,10.07077 c 0.52596,-0.52715 0.982278,-0.89838 1.368953,-1.1137 0.355788,-0.18561 0.804235,-0.27916 1.345639,-0.27916 0.757906,0 1.411422,0.29847 1.960548,0.89392 0.549125,0.59546 0.823688,1.28001 0.823688,2.05217 0,1.00678 -0.487204,2.06553 -1.461761,3.17923 -0.35564,0.38608 -0.746323,0.77661 -1.171606,1.1716 -0.425431,0.39499 -0.943522,0.85829 -1.554569,1.39286 -0.611047,0.53309 -1.009304,0.88502 -1.19492,1.05579 -0.278423,0.23164 -0.425282,0.34747 -0.440874,0.34747 h -0.162302 c -0.185616,0 -0.278424,-0.1084 -0.278424,-0.3252 m 0.742463,-7.4469 -0.09281,6.58861 c 0.603177,-0.57169 1.214224,-1.51165 1.832844,-2.81839 0.618768,-1.30822 0.928078,-2.42488 0.928078,-3.35296 0,-0.46478 -0.07722,-0.88947 -0.231945,-1.27704 -0.154729,-0.38608 -0.398257,-0.57912 -0.73088,-0.57912 -0.332624,0 -0.630351,0.11583 -0.893332,0.34748 -0.262832,0.23164 -0.533534,0.59545 -0.811957,1.09142" id="path106" style="stroke-width:1.48493"/>
	<path class="KeySig" d="M 49.837818,25.01165 49.466587,6.566051 c 0,-0.293866 0.231945,-0.440726 0.695985,-0.440726 0.448596,0 0.672968,0.14686 0.672968,0.440726 l -0.232094,10.069727 c 0.525961,-0.525961 0.982278,-0.897192 1.368953,-1.113694 0.355788,-0.185616 0.804236,-0.278424 1.34564,-0.278424 0.757906,0 1.411421,0.297728 1.960547,0.893183 0.549125,0.595604 0.823688,1.280006 0.823688,2.053504 0,1.005294 -0.487204,2.064937 -1.461612,3.178632 -0.355788,0.386674 -0.746472,0.77721 -1.171755,1.171606 -0.425431,0.394545 -0.943522,0.858584 -1.554569,1.392118 -0.610898,0.533682 -1.009304,0.885609 -1.194919,1.055782 -0.278424,0.231945 -0.425283,0.348066 -0.440726,0.348066 h -0.162451 c -0.185616,0 -0.278424,-0.108399 -0.278424,-0.324901 m 0.742463,-7.447794 -0.09281,6.589358 c 0.603177,-0.57229 1.214224,-1.511951 1.832993,-2.819131 0.61862,-1.307032 0.928078,-2.424587 0.928078,-3.352665 0,-0.46404 -0.07737,-0.889322 -0.232094,-1.275997 -0.154729,-0.386823 -0.398257,-0.580161 -0.73088,-0.580161 -0.332475,0 -0.630351,0.116122 -0.893183,0.348067 -0.26298,0.232094 -0.533682,0.595455 -0.812106,1.090529" id="path107" style="stroke-width:1.48493"/>
	<path class="KeySig" d="M 42.41319,36.148592 42.041958,17.702994 c 0,-0.293867 0.231946,-0.440726 0.695985,-0.440726 0.448596,0 0.67282,0.146859 0.67282,0.440726 l -0.231945,10.069727 c 0.52596,-0.525961 0.982278,-0.897193 1.368953,-1.113695 0.355788,-0.185615 0.804235,-0.278423 1.345639,-0.278423 0.757906,0 1.411422,0.297727 1.960548,0.893183 0.549125,0.595603 0.823688,1.280005 0.823688,2.053503 0,1.005295 -0.487204,2.064938 -1.461761,3.178632 -0.35564,0.386675 -0.746324,0.77721 -1.171606,1.171607 -0.425432,0.394544 -0.943522,0.858584 -1.554569,1.392117 -0.610898,0.533683 -1.009304,0.88561 -1.19492,1.055783 -0.278423,0.231945 -0.425282,0.348066 -0.440874,0.348066 h -0.162303 c -0.185615,0 -0.278423,-0.108399 -0.278423,-0.324902 m 0.742463,-7.447793 -0.09281,6.589358 c 0.603177,-0.572291 1.214224,-1.511951 1.832844,-2.819132 0.618768,-1.307031 0.928078,-2.424586 0.928078,-3.352665 0,-0.464039 -0.07722,-0.889322 -0.231945,-1.275996 -0.154729,-0.386824 -0.398257,-0.580161 -0.730881,-0.580161 -0.332475,0 -0.630351,0.116121 -0.893331,0.348067 -0.262832,0.232094 -0.533534,0.595603 -0.811957,1.090529" id="path108" style="stroke-width:1.48493"/>
	<path class="KeySig" d="M 34.988561,21.299336 34.61733,2.853737 c 0,-0.293867 0.231945,-0.440726 0.695985,-0.440726 0.448596,0 0.67282,0.146859 0.67282,0.440726 l -0.231946,10.069727 c 0.525961,-0.525961 0.982278,-0.897192 1.368953,-1.113695 0.355788,-0.185615 0.804236,-0.278423 1.34564,-0.278423 0.757906,0 1.411422,0.297727 1.960547,0.893183 0.549126,0.595603 0.823688,1.280006 0.823688,2.053503 0,1.005295 -0.487204,2.064938 -1.46176,3.178632 -0.35564,0.386675 -0.746324,0.77721 -1.171607,1.171607 -0.425431,0.394544 -0.943522,0.858584 -1.554568,1.392118 -0.610899,0.533682 -1.009304,0.885609 -1.19492,1.055782 -0.278424,0.231945 -0.425283,0.348066 -0.440875,0.348066 h -0.162302 c -0.185616,0 -0.278424,-0.108399 -0.278424,-0.324901 m 0.742463,-7.447794 -0.09281,6.589358 c 0.603177,-0.57229 1.214224,-1.511951 1.832844,-2.819131 0.618769,-1.307032 0.928079,-2.424587 0.928079,-3.352666 0,-0.464039 -0.07722,-0.889322 -0.231946,-1.275996 -0.154729,-0.386823 -0.398257,-0.580161 -0.73088,-0.580161 -0.332475,0 -0.630351,0.116121 -0.893331,0.348067 -0.262832,0.232094 -0.533534,0.595455 -0.811958,1.090529" id="path109" style="stroke-width:1.48493"/>
	<path class="KeySig" d="M 27.563933,32.436278 27.192702,13.99068 c 0,-0.293867 0.231945,-0.440726 0.695984,-0.440726 0.448596,0 0.67282,0.146859 0.67282,0.440726 l -0.231945,10.069726 c 0.52596,-0.52596 0.982278,-0.897192 1.368953,-1.113694 0.355788,-0.185616 0.804235,-0.278423 1.345639,-0.278423 0.757906,0 1.411422,0.297727 1.960548,0.893182 0.549125,0.595604 0.823688,1.280006 0.823688,2.053504 0,1.005295 -0.487204,2.064938 -1.461761,3.178632 -0.35564,0.386675 -0.746323,0.77721 -1.171606,1.171606 -0.425431,0.394545 -0.943522,0.858584 -1.554569,1.392118 -0.611047,0.533682 -1.009304,0.88561 -1.19492,1.055782 -0.278423,0.231946 -0.425282,0.348067 -0.440874,0.348067 h -0.162302 c -0.185616,0 -0.278424,-0.1084 -0.278424,-0.324902 m 0.742463,-7.447793 -0.09281,6.589358 c 0.603177,-0.572291 1.214224,-1.511952 1.832844,-2.819132 0.618768,-1.307031 0.928078,-2.424586 0.928078,-3.352665 0,-0.464039 -0.07722,-0.889322 -0.231945,-1.275997 -0.154729,-0.386823 -0.398257,-0.58016 -0.73088,-0.58016 -0.332624,0 -0.630351,0.116121 -0.893332,0.348066 -0.262832,0.232094 -0.533534,0.595604 -0.811957,1.09053" id="path110" style="stroke-width:1.48493"/>
	<path class="TimeSig" d="m 66.719493,138.58605 c -0.587734,0 -1.113694,-0.10543 -1.577734,-0.31332 -0.464039,-0.20938 -0.788792,-0.42915 -0.974408,-0.66228 -0.26298,-0.29402 -0.518239,-0.51824 -0.765628,-0.67267 -0.309458,-0.2168 -0.62649,-0.3252 -0.951391,-0.3252 -0.510369,0 -0.928079,0.15592 -1.252832,0.46478 -0.340345,0.29402 -0.533683,0.68752 -0.580012,1.18349 -0.03104,0.2168 -0.147008,0.3252 -0.348067,0.3252 -0.232094,0 -0.348066,-0.1084 -0.348066,-0.3252 0,-0.74247 0.177894,-1.41514 0.533682,-2.0195 0.340196,-0.61773 0.765628,-1.12855 1.276145,-1.53096 0.417561,-0.37123 0.974408,-0.81968 1.670541,-1.34534 0.123695,-0.0935 0.371232,-0.29402 0.742463,-0.60288 0.371232,-0.31035 0.688263,-0.57318 0.951244,-0.78998 0.494925,-0.41727 0.928078,-0.98154 1.29931,-1.69282 0.340196,-0.69643 0.510369,-1.44632 0.510369,-2.25115 0,-0.98896 -0.162303,-1.83982 -0.487205,-2.55258 -0.340344,-0.69495 -0.873878,-1.04391 -1.600898,-1.04391 -0.433153,0 -0.788941,0.0935 -1.067364,0.27917 -0.293867,0.20046 -0.440726,0.4633 -0.440726,0.7885 0,0.27916 0.173884,0.61921 0.521951,1.02162 0.348067,0.40093 0.5221,0.74247 0.5221,1.02015 0,0.57169 -0.201059,1.06023 -0.603325,1.46116 -0.386675,0.38757 -0.858436,0.58061 -1.415283,0.58061 -0.587734,0 -1.082808,-0.20046 -1.484926,-0.60288 -0.386674,-0.41726 -0.580012,-0.89689 -0.580012,-1.43889 0,-1.1137 0.444735,-2.02693 1.334057,-2.7382 0.889471,-0.71128 1.960548,-1.06618 3.213528,-1.06618 1.500369,0 2.799679,0.40093 3.89793,1.20576 1.098251,0.77364 1.647377,1.8027 1.647377,3.08567 0,0.8672 -0.15473,1.60966 -0.46404,2.22739 -0.294015,0.66525 -0.727019,1.18349 -1.29931,1.55472 -0.665246,0.41726 -1.237537,0.74246 -1.717019,0.97411 -0.680542,0.31035 -1.35351,0.60437 -2.018608,0.88205 -0.819828,0.3252 -1.453891,0.63406 -1.902487,0.92807 0.26298,-0.0624 0.525812,-0.0921 0.788793,-0.0921 0.897192,0 1.82527,0.28511 2.784235,0.85829 0.99,0.58803 1.755628,0.88056 2.297032,0.88056 0.324901,0 0.587733,-0.0609 0.788941,-0.18562 0.185615,-0.10691 0.30931,-0.23165 0.371231,-0.37123 0.07722,-0.18562 0.146859,-0.31629 0.208781,-0.3935 0.07736,-0.12474 0.170172,-0.18562 0.278423,-0.18562 0.231946,0 0.348067,0.11582 0.348067,0.34747 0,0.542 -0.386823,1.19834 -1.160173,1.97198 -0.757906,0.77365 -1.740184,1.16122 -2.946686,1.16122" id="path111" style="stroke-width:1.48493"/>
	<path class="TimeSig" d="m 67.508434,144.87322 c 0.974408,-1.06766 1.461761,-2.07296 1.461761,-3.01588 0,-0.78998 -0.340345,-1.41514 -1.020887,-1.87992 -0.649655,-0.4633 -1.46176,-0.69643 -2.436317,-0.69643 -0.680542,0 -1.221946,0.21383 -1.624063,0.63852 -0.402267,0.42469 -0.603326,0.90877 -0.603326,1.45077 0,0.6801 0.301737,1.19834 0.904914,1.55323 l 3.317918,1.94971 m 0.928078,0.48706 c 1.624064,0.95926 2.43617,2.22738 2.43617,3.80586 0,1.19091 -0.487205,2.18878 -1.461761,2.99213 -0.989852,0.85086 -2.374248,1.27703 -4.15304,1.27703 -1.515961,0 -2.784236,-0.38756 -3.805123,-1.16121 -1.082807,-0.77365 -1.624211,-1.77003 -1.624211,-2.99213 0,-0.43359 0.139286,-0.9058 0.417709,-1.41513 0.247389,-0.44993 0.494926,-0.7974 0.742463,-1.04539 0.123695,-0.15443 0.494926,-0.52566 1.113694,-1.11369 -1.222093,-0.84938 -1.832992,-1.90219 -1.832992,-3.15547 0,-1.06617 0.471761,-2.00316 1.415283,-2.80651 0.943522,-0.77364 2.211945,-1.15972 3.805122,-1.15972 1.283867,0 2.405283,0.2851 3.364248,0.85828 0.928078,0.58803 1.392117,1.39138 1.392117,2.41301 0,1.05132 -0.603176,2.21848 -1.809679,3.50294 m -5.475663,0.88204 c -1.191059,1.06766 -1.786514,2.08038 -1.786514,3.03964 0,0.98897 0.409839,1.81755 1.229667,2.4828 0.788792,0.64891 1.740184,0.97411 2.853879,0.97411 0.788792,0 1.407561,-0.24798 1.856157,-0.74246 0.464039,-0.46478 0.695984,-1.03648 0.695984,-1.71658 0,-0.83601 -0.340345,-1.44631 -1.020886,-1.83388 l -3.828287,-2.20363" id="path112" style="stroke-width:1.48493"/>
	<path class="TimeSig" d="m 558.35062,19.350371 c 0,0.201059 0.1084,0.386674 0.3252,0.556847 0.30886,0.232094 0.54794,0.409839 0.7187,0.533682 0.23165,0.123694 0.47963,0.433004 0.74246,0.928079 0.20047,0.464039 0.30144,1.028608 0.30144,1.693706 0,1.345788 -0.48705,2.374396 -1.46116,3.085824 -1.0053,0.711576 -2.28233,1.067364 -3.82814,1.067364 -1.26961,0 -2.33579,-0.309458 -3.20299,-0.928078 -0.92807,-0.57229 -1.39137,-1.384396 -1.39137,-2.436169 0,-0.495074 0.19304,-0.959114 0.57912,-1.392118 0.40241,-0.371231 0.8672,-0.556847 1.39286,-0.556847 0.542,0 0.99045,0.193337 1.34534,0.580012 0.38757,0.371231 0.58061,0.827549 0.58061,1.368953 0,0.247388 -0.19304,0.51809 -0.58061,0.811957 -0.41726,0.278424 -0.62664,0.541404 -0.62664,0.788941 0,0.371232 0.18562,0.641934 0.55685,0.812106 0.37123,0.170024 0.81968,0.25511 1.34683,0.25511 0.66376,0 1.14339,-0.324753 1.43741,-0.974408 0.27916,-0.72702 0.41875,-1.554569 0.41875,-2.482647 v -0.487204 c 0,-0.556847 -0.0238,-1.051922 -0.0698,-1.484926 -0.0312,-0.324902 -0.16334,-0.618769 -0.39499,-0.881749 -0.21679,-0.278423 -0.55684,-0.417561 -1.02014,-0.417561 h -2.39073 c -0.26283,0 -0.39351,-0.147008 -0.39351,-0.440874 0,-0.247538 0.13068,-0.394397 0.39351,-0.440875 h 2.39073 c 0.54051,0 0.92808,-0.170172 1.15973,-0.510369 0.18561,-0.278423 0.27768,-0.765628 0.27768,-1.461761 v -0.951243 -0.232094 c 0,-1.794236 -0.65634,-2.691428 -1.97198,-2.691428 -1.15973,0 -1.74034,0.31718 -1.74034,0.951392 0,0.216502 0.18562,0.448448 0.55685,0.695985 0.35638,0.247537 0.53457,0.479482 0.53457,0.696133 0,0.479482 -0.17819,0.897044 -0.53457,1.252832 -0.32371,0.324902 -0.72613,0.487204 -1.20576,0.487204 -0.46478,0 -0.86719,-0.162302 -1.20724,-0.487204 -0.32372,-0.371232 -0.48706,-0.788793 -0.48706,-1.252832 0,-0.912635 0.40984,-1.655098 1.22952,-2.227389 0.85086,-0.541403 1.81755,-0.812105 2.90006,-0.812105 1.43889,0 2.63723,0.278423 3.59649,0.83527 0.94441,0.541404 1.41513,1.392118 1.41513,2.552142 0,0.835271 -0.0846,1.461761 -0.25392,1.87947 -0.18561,0.448448 -0.38014,0.71915 -0.5806,0.811958 -0.23165,0.108251 -0.42618,0.224372 -0.58061,0.348066 -0.18562,0.139286 -0.27768,0.324902 -0.27768,0.556848" id="path115" style="stroke-width:1.48493"/>
	<path class="TimeSig" d="m 557.5844,33.503643 c 0.97411,-1.067365 1.46265,-2.072808 1.46265,-3.01633 0,-0.788792 -0.34153,-1.415282 -1.02163,-1.879322 -0.64891,-0.464039 -1.46117,-0.696133 -2.43676,-0.696133 -0.6801,0 -1.22061,0.21279 -1.62303,0.638073 -0.40241,0.425431 -0.60436,0.908774 -0.60436,1.450178 0,0.680542 0.30292,1.198781 0.9058,1.554569 l 3.31733,1.948965 m 0.92808,0.487204 c 1.6245,0.958965 2.43676,2.227388 2.43676,3.805122 0,1.191059 -0.48706,2.188632 -1.46265,2.993016 -0.98896,0.850714 -2.3744,1.276145 -4.15186,1.276145 -1.5161,0 -2.78423,-0.386674 -3.80586,-1.160172 -1.08251,-0.773349 -1.62451,-1.771071 -1.62451,-2.993016 0,-0.433153 0.13958,-0.904914 0.41875,-1.415283 0.2465,-0.448596 0.49448,-0.796663 0.74246,-1.044051 0.12325,-0.15473 0.49448,-0.525961 1.1137,-1.113695 -1.2221,-0.850862 -1.83389,-1.902635 -1.83389,-3.155467 0,-1.067364 0.47221,-2.003164 1.41514,-2.807549 0.94441,-0.773349 2.21254,-1.160024 3.80586,-1.160024 1.28298,0 2.40558,0.286146 3.36336,0.858436 0.92808,0.587734 1.39286,1.392118 1.39286,2.413004 0,1.051773 -0.60288,2.219667 -1.81012,3.503534 m -5.47493,0.8816 c -1.19091,1.067365 -1.78636,2.08053 -1.78636,3.039495 0,0.99 0.40984,1.817549 1.22952,2.482647 0.78849,0.649655 1.74033,0.974408 2.85402,0.974408 0.7885,0 1.40623,-0.247389 1.85616,-0.742463 0.4633,-0.464039 0.69495,-1.036329 0.69495,-1.716871 0,-0.835271 -0.34005,-1.446317 -1.02015,-1.832992 l -3.82814,-2.204224" id="path116" style="stroke-width:1.48493"/>
	<path class="TimeSig" d="m 66.719493,27.215873 c -0.587734,0 -1.113694,-0.10439 -1.577734,-0.313319 -0.464039,-0.20878 -0.788792,-0.429143 -0.974408,-0.661237 -0.26298,-0.293867 -0.518239,-0.518091 -0.765628,-0.67282 -0.309458,-0.216502 -0.62649,-0.324753 -0.951391,-0.324753 -0.510369,0 -0.928079,0.15458 -1.252832,0.464039 -0.340345,0.293867 -0.533683,0.688263 -0.580012,1.183189 -0.03104,0.21665 -0.147008,0.324901 -0.348067,0.324901 -0.232094,0 -0.348066,-0.108251 -0.348066,-0.324901 0,-0.742463 0.177894,-1.415283 0.533682,-2.01846 0.340196,-0.618768 0.765628,-1.129286 1.276145,-1.531404 0.417561,-0.371231 0.974408,-0.819827 1.670541,-1.345639 0.123695,-0.09281 0.371232,-0.294016 0.742463,-0.603326 0.371232,-0.30931 0.688263,-0.57229 0.951244,-0.788792 0.494925,-0.41771 0.928078,-0.982278 1.29931,-1.693855 0.340196,-0.695985 0.510369,-1.446169 0.510369,-2.250553 0,-0.99 -0.162303,-1.840714 -0.487205,-2.552142 -0.340344,-0.696133 -0.873878,-1.0442 -1.600898,-1.0442 -0.433153,0 -0.788941,0.09281 -1.067364,0.278424 -0.293867,0.201059 -0.440726,0.464039 -0.440726,0.788941 0,0.278423 0.173884,0.61862 0.521951,1.020886 0.348067,0.402118 0.5221,0.742463 0.5221,1.020887 0,0.57229 -0.201059,1.059494 -0.603325,1.46176 -0.386675,0.386675 -0.858436,0.580012 -1.415283,0.580012 -0.587734,0 -1.082808,-0.201058 -1.484926,-0.603325 -0.386674,-0.417561 -0.580012,-0.897043 -0.580012,-1.438447 0,-1.113695 0.444735,-2.02633 1.334057,-2.737906 0.889471,-0.711428 1.960548,-1.067216 3.213528,-1.067216 1.500369,0 2.799679,0.402117 3.89793,1.206502 1.098251,0.773349 1.647377,1.801957 1.647377,3.085824 0,0.866157 -0.15473,1.60862 -0.46404,2.227388 -0.294015,0.665099 -0.727019,1.183338 -1.29931,1.554569 -0.665246,0.417561 -1.237537,0.742463 -1.717019,0.974408 -0.680542,0.309459 -1.35351,0.603326 -2.018608,0.881749 -0.819828,0.324753 -1.453891,0.634212 -1.902487,0.928079 0.26298,-0.06192 0.525812,-0.09281 0.788793,-0.09281 0.897192,0 1.82527,0.286145 2.784235,0.858435 0.99,0.587734 1.755628,0.881749 2.297032,0.881749 0.324901,0 0.587733,-0.06192 0.788941,-0.185616 0.185615,-0.108399 0.30931,-0.232093 0.371231,-0.371231 0.07722,-0.185616 0.146859,-0.31718 0.208781,-0.394545 0.07736,-0.123694 0.170172,-0.185615 0.278423,-0.185615 0.231946,0 0.348067,0.116121 0.348067,0.348066 0,0.541404 -0.386823,1.198781 -1.160173,1.97213 -0.757906,0.773498 -1.740184,1.160172 -2.946686,1.160172" id="path117" style="stroke-width:1.48493"/>
	<path class="TimeSig" d="m 67.508434,33.503643 c 0.974408,-1.067365 1.461761,-2.072808 1.461761,-3.01633 0,-0.788792 -0.340345,-1.415282 -1.020887,-1.879322 -0.649655,-0.464039 -1.46176,-0.696133 -2.436317,-0.696133 -0.680542,0 -1.221946,0.21279 -1.624063,0.638073 -0.402267,0.425431 -0.603326,0.908774 -0.603326,1.450178 0,0.680542 0.301737,1.198781 0.904914,1.554569 l 3.317918,1.948965 m 0.928078,0.487204 c 1.624064,0.958965 2.43617,2.227388 2.43617,3.805122 0,1.191059 -0.487205,2.188632 -1.461761,2.993016 -0.989852,0.850714 -2.374248,1.276145 -4.15304,1.276145 -1.515961,0 -2.784236,-0.386674 -3.805123,-1.160172 -1.082807,-0.773349 -1.624211,-1.771071 -1.624211,-2.993016 0,-0.433153 0.139286,-0.904914 0.417709,-1.415283 0.247389,-0.448596 0.494926,-0.796663 0.742463,-1.044051 0.123695,-0.15473 0.494926,-0.525961 1.113694,-1.113695 -1.222093,-0.850862 -1.832992,-1.902635 -1.832992,-3.155467 0,-1.067364 0.471761,-2.003164 1.415283,-2.807549 0.943522,-0.773349 2.211945,-1.160024 3.805122,-1.160024 1.283867,0 2.405283,0.286146 3.364248,0.858436 0.928078,0.587734 1.392117,1.392118 1.392117,2.413004 0,1.051773 -0.603176,2.219667 -1.809679,3.503534 m -5.475663,0.8816 c -1.191059,1.067365 -1.786514,2.08053 -1.786514,3.039495 0,0.99 0.409839,1.817549 1.229667,2.482647 0.788792,0.649655 1.740184,0.974408 2.853879,0.974408 0.788792,0 1.407561,-0.247389 1.856157,-0.742463 0.464039,-0.464039 0.695984,-1.036329 0.695984,-1.716871 0,-0.835271 -0.340345,-1.446317 -1.020886,-1.832992 l -3.828287,-2.204224" id="path118" style="stroke-width:1.48493"/>
	<path class="Hook" d="m 605.48364,120.02447 c 0,0.98896 0.2168,1.97941 0.64892,2.96986 0.40241,0.95777 0.9058,1.871 1.50868,2.73671 l 1.74033,2.55259 c 0.5717,0.80483 1.07509,1.724 1.5072,2.76048 0.41875,0.97559 0.62664,1.94971 0.62664,2.92382 0,0.91323 -0.23165,1.86358 -0.69494,2.85402 0.58654,1.17606 0.88056,2.32837 0.88056,3.45691 0,1.77894 -0.41727,3.59649 -1.25179,5.45265 -0.15592,0.23165 -0.34154,0.34747 -0.55685,0.34747 -0.18562,0 -0.35638,-0.0772 -0.51082,-0.23165 -0.12473,-0.12325 -0.18561,-0.27025 -0.18561,-0.44102 0,0 0,-0.046 0,-0.1381 0.83453,-1.65569 1.25328,-3.31881 1.25328,-4.98935 0,-0.75731 -0.14701,-1.45374 -0.44103,-2.08781 -0.34153,-0.75879 -0.76622,-1.45374 -1.27703,-2.0878 -0.63407,-0.83601 -1.13597,-1.43889 -1.5072,-1.81012 -0.49597,-0.49449 -1.07509,-1.04391 -1.74034,-1.64679 v 2.22739 h -0.92807 v -14.84926 h 0.92807 m 4.54685,15.33632 c 0.13958,-0.40242 0.20937,-0.8672 0.20937,-1.39286 0,-0.66525 -0.13216,-1.34535 -0.39499,-2.04178 -0.29401,-0.69643 -0.70385,-1.40771 -1.22952,-2.13383 -0.47963,-0.58804 -0.97411,-1.17607 -1.48492,-1.7641 -0.38608,-0.41726 -0.93551,-0.97411 -1.64679,-1.67054 0,0.7885 0.16186,1.62451 0.48706,2.50656 0.3549,0.83452 0.7187,1.56214 1.08994,2.17987 0.41875,0.66524 0.9355,1.41216 1.55471,2.23927 0.61922,0.82858 1.09142,1.52056 1.41514,2.07741" id="path160" style="stroke-width:1.48493"/>
	<path class="Hook" d="m 537.59284,123.73679 v -7.42463 h 0.92808 c 0,1.09736 0.2168,2.20363 0.6504,3.31732 0.4633,1.19091 0.97411,2.23482 1.53096,3.13171 0.40241,0.63407 1.01272,1.60966 1.8324,2.92382 0.61921,1.0053 1.1419,2.05662 1.56659,3.15547 0.42618,1.09884 0.63852,2.20363 0.63852,3.31732 0,2.01208 -0.41726,4.06127 -1.25328,6.14908 -0.15443,0.23165 -0.34005,0.34747 -0.55684,0.34747 -0.18562,0 -0.35639,-0.0772 -0.51082,-0.23165 -0.12325,-0.12325 -0.18561,-0.27025 -0.18561,-0.44102 v -0.1381 c 0.83601,-1.91852 1.25327,-3.81329 1.25327,-5.68578 0,-0.97411 -0.29401,-2.01801 -0.88204,-3.13171 -0.5717,-1.14487 -1.15973,-2.05662 -1.76261,-2.7382 -0.68158,-0.78849 -1.45374,-1.63936 -2.32094,-2.5511 h -0.92808" id="path161" style="stroke-width:1.48493"/>
	<path class="Hook" d="m 456.97623,125.59295 v -7.42463 h 0.92808 c 0,1.09736 0.21679,2.20363 0.65039,3.31732 0.4633,1.19091 0.97411,2.23481 1.53096,3.13171 0.40242,0.63406 1.01272,1.60966 1.8324,2.92382 0.61921,1.00529 1.14191,2.05662 1.5666,3.15547 0.42617,1.09884 0.63851,2.20362 0.63851,3.31732 0,2.01207 -0.41874,4.06127 -1.25327,6.14908 -0.15443,0.23164 -0.34005,0.34747 -0.55685,0.34747 -0.18562,0 -0.35638,-0.0772 -0.51081,-0.23165 -0.12325,-0.12325 -0.18562,-0.27026 -0.18562,-0.44102 v -0.1381 c 0.83601,-1.91852 1.25328,-3.81329 1.25328,-5.68578 0,-0.97411 -0.29402,-2.01801 -0.88205,-3.13171 -0.57169,-1.14488 -1.15973,-2.05662 -1.76261,-2.7382 -0.68158,-0.7885 -1.45374,-1.63936 -2.32093,-2.5511 h -0.92808" id="path162" style="stroke-width:1.48493"/>
	<path class="Hook" d="m 386.45711,125.59295 v -7.42463 h 0.92808 c 0,1.09736 0.21679,2.20363 0.65039,3.31732 0.4633,1.19091 0.97411,2.23481 1.53096,3.13171 0.40242,0.63406 1.01272,1.60966 1.8324,2.92382 0.61921,1.00529 1.14191,2.05662 1.5666,3.15547 0.42468,1.09884 0.63851,2.20362 0.63851,3.31732 0,2.01207 -0.41875,4.06127 -1.25327,6.14908 -0.15444,0.23164 -0.34005,0.34747 -0.55685,0.34747 -0.18562,0 -0.35638,-0.0772 -0.51082,-0.23165 -0.12324,-0.12325 -0.18561,-0.27026 -0.18561,-0.44102 v -0.1381 c 0.83601,-1.91852 1.25328,-3.81329 1.25328,-5.68578 0,-0.97411 -0.29402,-2.01801 -0.88205,-3.13171 -0.5717,-1.14488 -1.15973,-2.05662 -1.76261,-2.7382 -0.68158,-0.7885 -1.45374,-1.63936 -2.32093,-2.5511 h -0.92808" id="path163" style="stroke-width:1.48493"/>
	<path class="Hook" d="m 288.05554,158.63254 c 0.77364,-0.44993 1.5072,-0.9058 2.20363,-1.3691 0.74246,-0.52566 1.40028,-1.05281 1.97198,-1.57848 0.69643,-0.63406 1.22952,-1.29188 1.60075,-1.97198 0.38756,-0.72761 0.5806,-1.44631 0.5806,-2.15759 0,-0.6801 -0.13958,-1.36911 -0.41726,-2.06554 -0.20195,0.26284 -0.82859,0.88205 -1.87992,1.85616 -0.78849,0.72762 -1.46116,1.39286 -2.01801,1.99574 -0.51082,0.542 -0.97411,1.2221 -1.39286,2.04177 -0.43211,0.81968 -0.64891,1.6557 -0.64891,2.50656 v 0.74246 m 7.98147,-13.75932 c 0,1.15973 -0.37123,2.31203 -1.11369,3.45691 0.49448,1.02163 0.74246,2.09671 0.74246,3.22526 0,0.94292 -0.26283,1.89476 -0.7885,2.85402 -0.55684,1.05133 -1.18348,1.90219 -1.87991,2.55259 l -2.27342,2.20363 c -0.7588,0.77365 -1.38544,1.6156 -1.87992,2.52883 -0.52566,0.92808 -0.78849,1.88734 -0.78849,2.87778 h -0.92808 v -14.84925 h 0.92808 v 2.22739 c 4.48596,-2.33579 6.72819,-4.69534 6.72819,-7.07716 0,-0.52566 -0.13215,-1.13745 -0.39499,-1.8324 0,0 0,-0.0386 0,-0.11731 0,-0.15443 0.055,-0.30886 0.16335,-0.46329 0.15443,-0.15444 0.33262,-0.23165 0.53308,-0.23165 0.18562,0 0.35639,0.11582 0.51082,0.34747 0.16928,0.30887 0.27026,0.61179 0.30144,0.90432 0.0149,0.13958 0.0312,0.31777 0.046,0.53457 l 0.0698,0.30144 c 0.0163,0.13959 0.0238,0.3252 0.0238,0.55685" id="path164" style="stroke-width:1.48493"/>
	<path class="Hook" d="m 227.95465,139.37454 c 0.44845,0 0.92808,0.7187 1.4389,2.1576 0.47963,1.43889 0.7187,2.80799 0.7187,4.1073 0,1.09736 -0.27026,2.18878 -0.81225,3.27129 -0.55685,1.15973 -1.22061,2.16503 -1.99426,3.01589 l -2.39073,2.66841 c -0.72613,0.85086 -1.38395,1.8324 -1.97198,2.94609 -0.54051,1.08251 -0.81225,2.18878 -0.81225,3.31881 h -0.92808 v -7.42463 h 0.92808 c 0.52566,-0.3252 1.29931,-0.85086 2.32093,-1.57847 0.4633,-0.34005 1.15973,-0.92066 2.08781,-1.74034 0.75731,-0.69643 1.33049,-1.40771 1.71657,-2.13384 0.40242,-0.77364 0.60437,-1.55471 0.60437,-2.34321 0,-1.84131 -0.53457,-3.6737 -1.60224,-5.50016 0,0 0,-0.0386 0,-0.11583 0,-0.16928 0.0624,-0.30886 0.18562,-0.41726 0.15592,-0.15443 0.3252,-0.23165 0.51081,-0.23165" id="path165" style="stroke-width:1.48493"/>
	<path class="Hook" d="m 154.28452,139.37454 c 0.44845,0 0.92808,0.7187 1.43741,2.1576 0.47963,1.43889 0.72019,2.80799 0.72019,4.1073 0,1.09736 -0.27174,2.18878 -0.81226,3.27129 -0.55684,1.15973 -1.22209,2.16503 -1.99574,3.01589 l -2.38924,2.66841 c -0.72762,0.85086 -1.38544,1.8324 -1.97198,2.94609 -0.542,1.08251 -0.81226,2.18878 -0.81226,3.31881 h -0.92808 v -7.42463 h 0.92808 c 0.52567,-0.3252 1.29931,-0.85086 2.31946,-1.57847 0.46478,-0.34005 1.15972,-0.92066 2.0878,-1.74034 0.7588,-0.69643 1.3305,-1.40771 1.71806,-2.13384 0.40242,-0.77364 0.60288,-1.55471 0.60288,-2.34321 0,-1.84131 -0.53309,-3.6737 -1.60075,-5.50016 0,0 0,-0.0386 0,-0.11583 0,-0.16928 0.0624,-0.30886 0.18562,-0.41726 0.15443,-0.15443 0.3252,-0.23165 0.51081,-0.23165" id="path166" style="stroke-width:1.48493"/>
	<path class="Hook" d="m 90.7104,139.37454 c 0.44859,0 0.92808,0.7187 1.43845,2.1576 0.47963,1.43889 0.71929,2.80799 0.71929,4.1073 0,1.09736 -0.2707,2.18878 -0.8121,3.27129 -0.55685,1.15973 -1.22195,2.16503 -1.9953,3.01589 l -2.38984,2.66841 c -0.72702,0.85086 -1.38439,1.8324 -1.97213,2.94609 -0.5414,1.08251 -0.8121,2.18878 -0.8121,3.31881 h -0.92808 v -7.42463 h 0.92808 c 0.52596,-0.3252 1.29931,-0.85086 2.32019,-1.57847 0.46404,-0.34005 1.16018,-0.92066 2.08826,-1.74034 0.7579,-0.69643 1.33019,-1.40771 1.71687,-2.13384 0.40226,-0.77364 0.60332,-1.55471 0.60332,-2.34321 0,-1.84131 -0.53368,-3.6737 -1.60105,-5.50016 0,0 0,-0.0386 0,-0.11583 0,-0.16928 0.0619,-0.30886 0.18562,-0.41726 0.15473,-0.15443 0.3249,-0.23165 0.51052,-0.23165" id="path167" style="stroke-width:1.48493"/>
	<path class="Hook" d="m 726.97581,16.867723 c 0.44845,0 0.92808,0.719298 1.43889,2.157894 0.47963,1.438448 0.71871,2.807401 0.71871,4.106711 0,1.098251 -0.27026,2.188632 -0.81077,3.27144 -0.55685,1.160172 -1.2221,2.165467 -1.99574,3.016329 l -2.39073,2.668115 c -0.72613,0.850862 -1.38395,1.832992 -1.97198,2.946686 -0.54052,1.082808 -0.81226,2.188781 -0.81226,3.317918 h -0.92808 v -7.424628 h 0.92808 c 0.52715,-0.324902 1.29931,-0.850714 2.32094,-1.577734 0.4633,-0.340345 1.15973,-0.920357 2.08781,-1.740184 0.75879,-0.695985 1.33049,-1.407561 1.71657,-2.134581 0.40241,-0.773349 0.60436,-1.554569 0.60436,-2.343361 0,-1.840714 -0.53457,-3.673706 -1.60075,-5.498829 0,0 0,-0.03876 0,-0.116121 0,-0.170024 0.0609,-0.30931 0.18562,-0.417561 0.15443,-0.154729 0.32371,-0.232094 0.50933,-0.232094" id="path168" style="stroke-width:1.48493"/>
	<path class="Hook" d="m 650.76348,16.867723 c 0.44845,0 0.92808,0.719298 1.4389,2.157894 0.47814,1.438448 0.7187,2.807401 0.7187,4.106711 0,1.098251 -0.27026,2.188632 -0.81225,3.27144 -0.55685,1.160172 -1.2221,2.165467 -1.99574,3.016329 l -2.38925,2.668115 c -0.72761,0.850862 -1.38395,1.832992 -1.97198,2.946686 -0.542,1.082808 -0.81225,2.188781 -0.81225,3.317918 h -0.92808 v -7.424628 h 0.92808 c 0.52566,-0.324902 1.29931,-0.850714 2.31945,-1.577734 0.46478,-0.340345 1.16121,-0.920357 2.08929,-1.740184 0.75731,-0.695985 1.32901,-1.407561 1.71657,-2.134581 0.40242,-0.773349 0.60288,-1.554569 0.60288,-2.343361 0,-1.840714 -0.53308,-3.673706 -1.60075,-5.498829 0,0 0,-0.03876 0,-0.116121 0,-0.170024 0.0624,-0.30931 0.18562,-0.417561 0.15443,-0.154729 0.3252,-0.232094 0.51081,-0.232094" id="path169" style="stroke-width:1.48493"/>
	<path class="Hook" d="m 580.78636,28.004666 c 0.44845,0 0.92808,0.719298 1.43889,2.157894 0.47963,1.438447 0.71871,2.8074 0.71871,4.10671 0,1.098251 -0.27026,2.188781 -0.81226,3.27144 -0.55684,1.160173 -1.22061,2.165616 -1.99425,3.01633 l -2.39073,2.668114 c -0.72613,0.850863 -1.38395,1.832993 -1.97198,2.946683 -0.54052,1.08281 -0.81226,2.18878 -0.81226,3.31792 H 574.0344 V 42.06513 h 0.92808 c 0.52567,-0.324901 1.29931,-0.850714 2.32094,-1.577733 0.4633,-0.340345 1.15973,-0.920357 2.08781,-1.740185 0.75731,-0.695984 1.33049,-1.407561 1.71657,-2.13458 0.40242,-0.77335 0.60437,-1.554569 0.60437,-2.343362 0,-1.840713 -0.53458,-3.673706 -1.60224,-5.498828 0,0 0,-0.03876 0,-0.116121 0,-0.170024 0.0624,-0.30931 0.18562,-0.417561 0.15591,-0.154729 0.3252,-0.232094 0.51081,-0.232094" id="path170" style="stroke-width:1.48493"/>
	<path class="Hook" d="m 152.93769,28.004666 c 0.44845,0 0.92808,0.719298 1.4389,2.157894 0.47963,1.438447 0.7187,2.8074 0.7187,4.10671 0,1.098251 -0.27026,2.188781 -0.81225,3.27144 -0.55685,1.160173 -1.2221,2.165616 -1.99574,3.01633 l -2.38925,2.668114 c -0.72761,0.850863 -1.38395,1.832993 -1.97198,2.946683 -0.542,1.08281 -0.81226,2.18878 -0.81226,3.31792 h -0.92807 V 42.06513 h 0.92807 c 0.52567,-0.324901 1.29931,-0.850714 2.32094,-1.577733 0.4633,-0.340345 1.15973,-0.920357 2.08781,-1.740185 0.75731,-0.695984 1.33049,-1.407561 1.71657,-2.13458 0.40242,-0.77335 0.60288,-1.554569 0.60288,-2.343362 0,-1.840713 -0.53309,-3.673706 -1.60075,-5.498828 0,0 0,-0.03876 0,-0.116121 0,-0.170024 0.0624,-0.30931 0.18562,-0.417561 0.15443,-0.154729 0.3252,-0.232094 0.51081,-0.232094" id="path171" style="stroke-width:1.48493"/>
	<path class="Hook" d="m 90.7104,28.004666 c 0.44859,0 0.92808,0.719298 1.43845,2.157894 0.47963,1.438447 0.71929,2.8074 0.71929,4.10671 0,1.098251 -0.2707,2.188781 -0.8121,3.27144 -0.55685,1.160173 -1.22195,2.165616 -1.9953,3.01633 l -2.38984,2.668114 c -0.72702,0.850863 -1.38439,1.832993 -1.97213,2.946683 -0.5414,1.08281 -0.8121,2.18878 -0.8121,3.31792 H 83.95859 V 42.06513 h 0.92808 c 0.52596,-0.324901 1.29931,-0.850714 2.32019,-1.577733 0.46404,-0.340345 1.16018,-0.920357 2.08826,-1.740185 0.7579,-0.695984 1.33019,-1.407561 1.71687,-2.13458 0.40226,-0.77335 0.60332,-1.554569 0.60332,-2.343362 0,-1.840713 -0.53368,-3.673706 -1.60105,-5.498828 0,0 0,-0.03876 0,-0.116121 0,-0.170024 0.0619,-0.30931 0.18562,-0.417561 0.15473,-0.154729 0.3249,-0.232094 0.51052,-0.232094" id="path172" style="stroke-width:1.48493"/>
	<path class="NoteDot" d="m 741.98247,150.91687 c -0.33262,-0.33263 -0.49894,-0.73059 -0.49894,-1.19388 0,-0.46478 0.16632,-0.86274 0.49894,-1.19537 0.33262,-0.33262 0.73058,-0.49893 1.19536,-0.49893 0.4633,0 0.85829,0.16631 1.18349,0.49893 0.32371,0.33263 0.48706,0.73059 0.48706,1.19537 0,0.46329 -0.16335,0.86125 -0.48706,1.19388 -0.3252,0.33262 -0.72019,0.49893 -1.18349,0.49893 -0.46478,0 -0.86274,-0.16631 -1.19536,-0.49893" id="path173" style="stroke-width:1.48493"/>
	<path class="NoteDot" d="m 541.6556,143.49224 c -0.33262,-0.33262 -0.49894,-0.73058 -0.49894,-1.19388 0,-0.46478 0.16632,-0.86274 0.49894,-1.19537 0.33262,-0.33262 0.73058,-0.49893 1.19536,-0.49893 0.4633,0 0.85829,0.16631 1.18349,0.49893 0.3252,0.33263 0.48706,0.73059 0.48706,1.19537 0,0.4633 -0.16186,0.86126 -0.48706,1.19388 -0.3252,0.33262 -0.72019,0.49893 -1.18349,0.49893 -0.46478,0 -0.86274,-0.16631 -1.19536,-0.49893" id="path174" style="stroke-width:1.48493"/>
	<path class="NoteDot" d="m 234.07552,136.06761 c -0.33263,-0.33262 -0.49894,-0.73058 -0.49894,-1.19388 0,-0.46478 0.16631,-0.86274 0.49894,-1.19536 0.33262,-0.33263 0.73058,-0.49894 1.19536,-0.49894 0.4633,0 0.85829,0.16631 1.18349,0.49894 0.32371,0.33262 0.48705,0.73058 0.48705,1.19536 0,0.4633 -0.16334,0.86126 -0.48705,1.19388 -0.3252,0.33262 -0.72019,0.49894 -1.18349,0.49894 -0.46478,0 -0.86274,-0.16632 -1.19536,-0.49894" id="path175" style="stroke-width:1.48493"/>
	<polyline class="BarLine" id="polyline49-6" points="566.694,158.347 566.694,178.347" stroke="#000000" stroke-linejoin="bevel" stroke-width="0.8" transform="matrix(1.4849257,0,0,1.4849257,-42.092446,-222.4883)"/>
	<path aria-label="Ya" d="m 81.435985,71.068245 v -0.768567 h 1.384872 v -3.893591 l -3.342543,-5.387222 h -1.015089 v -0.775818 h 4.024102 v 0.775818 h -1.26161 l 2.704487,4.379383 2.704487,-4.379383 h -1.218107 v -0.775818 h 3.146776 v 0.775818 h -1.02234 l -3.255535,5.24946 v 4.031353 h 1.384871 v 0.768567 z M 93.189264,68.646533 V 67.01514 h -1.7184 q -0.993337,0 -1.47913,0.427787 -0.485792,0.427788 -0.485792,1.312365 0,0.804821 0.493043,1.276112 0.493043,0.471291 1.334117,0.471291 0.833823,0 1.341367,-0.514795 0.514795,-0.514795 0.514795,-1.341367 z m 1.334117,-2.39271 v 4.045855 h 1.189104 v 0.768567 h -2.523221 v -0.833823 q -0.442288,0.536547 -1.022339,0.790319 -0.580051,0.253772 -1.355869,0.253772 -1.283362,0 -2.037428,-0.681559 -0.754066,-0.68156 -0.754066,-1.841662 0,-1.196354 0.862825,-1.856162 0.862826,-0.659808 2.436214,-0.659808 h 1.870663 v -0.529296 q 0,-0.877327 -0.536547,-1.355869 -0.529296,-0.485793 -1.49363,-0.485793 -0.79757,0 -1.268862,0.362532 -0.471291,0.362532 -0.587301,1.073094 h -0.68881 v -1.558886 q 0.696061,-0.297276 1.348618,-0.442289 0.659808,-0.152263 1.283362,-0.152263 1.602391,0 2.436214,0.797569 0.841073,0.79032 0.841073,2.305702 z" id="text175" style="font-size:14.8493px;font-family:serif;-inkscape-font-specification:serif;fill:#1a1a1a;stroke-width:1.48493;stroke-linejoin:round;paint-order:fill markers stroke"/>
	<path aria-label="na" d="m 141.14415,70.980148 v -0.768567 h 1.2036 v -6.16304 h -1.27611 v -0.775818 h 2.61023 v 1.37037 q 0.36978,-0.783068 0.95708,-1.181853 0.59456,-0.398785 1.37763,-0.398785 1.27611,0 1.87791,0.732314 0.6018,0.732314 0.6018,2.28395 v 4.132862 h 1.18911 v 0.768567 h -3.68333 v -0.768567 h 1.15285 v -3.712325 q 0,-1.413874 -0.34803,-1.93592 -0.34803,-0.529296 -1.22535,-0.529296 -0.92808,0 -1.41388,0.68156 -0.48579,0.674309 -0.48579,1.972172 v 3.523809 h 1.1601 v 0.768567 z m 14.8638,-2.421712 v -1.631393 h -1.7184 q -0.99334,0 -1.47913,0.427788 -0.48579,0.427787 -0.48579,1.312365 0,0.80482 0.49304,1.276112 0.49304,0.471291 1.33412,0.471291 0.83382,0 1.34136,-0.514795 0.5148,-0.514795 0.5148,-1.341368 z m 1.33412,-2.392709 v 4.045854 h 1.1891 v 0.768567 h -2.52322 v -0.833823 q -0.44229,0.536547 -1.02234,0.79032 -0.58005,0.253772 -1.35587,0.253772 -1.28336,0 -2.03743,-0.68156 -0.75406,-0.68156 -0.75406,-1.841661 0,-1.196355 0.86282,-1.856163 0.86283,-0.659808 2.43622,-0.659808 h 1.87066 v -0.529296 q 0,-0.877327 -0.53655,-1.355869 -0.52929,-0.485792 -1.49363,-0.485792 -0.79757,0 -1.26886,0.362532 -0.47129,0.362531 -0.5873,1.073094 h -0.68881 v -1.558887 q 0.69606,-0.297276 1.34862,-0.442289 0.65981,-0.152263 1.28336,-0.152263 1.60239,0 2.43621,0.79757 0.84108,0.790319 0.84108,2.305702 z" id="text175-7" style="font-size:14.8493px;font-family:serif;-inkscape-font-specification:serif;fill:#1a1a1a;stroke-width:1.48493;stroke-linejoin:round;paint-order:fill markers stroke"/>
	<path aria-label="hi" d="m 321.34419,70.992073 v -0.768567 h 1.20361 v -9.744854 h -1.27612 v -0.768567 h 2.61023 v 4.944933 q 0.36979,-0.783068 0.95709,-1.181853 0.59455,-0.398785 1.37762,-0.398785 1.27611,0 1.87791,0.732314 0.60181,0.732314 0.60181,2.28395 v 4.132862 h 1.1891 v 0.768567 h -3.68332 v -0.768567 h 1.15285 v -3.712325 q 0,-1.413874 -0.34803,-1.928669 -0.34078,-0.522046 -1.22536,-0.522046 -0.92808,0 -1.41387,0.674309 -0.4858,0.674309 -0.4858,1.964922 v 3.523809 h 1.16011 v 0.768567 z M 331.7416,60.891939 q 0,-0.33353 0.23927,-0.580051 0.24652,-0.246522 0.5873,-0.246522 0.33353,0 0.5728,0.246522 0.24653,0.246521 0.24653,0.580051 0,0.340779 -0.23928,0.58005 -0.23927,0.239271 -0.58005,0.239271 -0.34078,0 -0.5873,-0.239271 -0.23927,-0.239271 -0.23927,-0.58005 z m 1.7039,9.331567 h 1.26161 v 0.768567 h -3.87184 v -0.768567 h 1.27611 v -6.16304 h -1.27611 v -0.775818 h 2.61023 z" id="text175-3" style="font-size:14.8493px;font-family:serif;-inkscape-font-specification:serif;fill:#1a1a1a;stroke-width:1.48493;stroke-linejoin:round;paint-order:fill markers stroke"/>
	<path aria-label="yo" d="m 475.68501,72.215273 0.50754,-1.283362 -2.8785,-7.062119 h -0.87733 v -0.775818 h 3.54556 v 0.775818 h -1.23261 l 2.16794,5.300214 2.16794,-5.300214 h -1.15285 v -0.775818 h 2.89301 v 0.775818 h -0.86283 l -3.53106,8.67176 q -0.36253,0.899078 -0.80482,1.225357 -0.44229,0.333529 -1.24711,0.333529 -0.34078,0 -0.70331,-0.058 -0.35528,-0.05801 -0.71781,-0.166765 V 72.40379 h 0.68156 q 0.0435,0.493043 0.24652,0.703311 0.21027,0.217519 0.6453,0.217519 0.39879,0 0.63806,-0.224769 0.24652,-0.21752 0.5148,-0.884578 z m 9.65059,-1.921418 q 1.07309,0 1.61689,-0.848325 0.55105,-0.848324 0.55105,-2.501469 0,-1.653144 -0.55105,-2.494218 -0.5438,-0.848324 -1.61689,-0.848324 -1.07309,0 -1.62414,0.848324 -0.5438,0.841074 -0.5438,2.494218 0,1.653145 0.55105,2.501469 0.55105,0.848325 1.61689,0.848325 z m 0,0.717813 q -1.68215,0 -2.70449,-1.109348 -1.02234,-1.116597 -1.02234,-2.958259 0,-1.841661 1.01509,-2.951008 1.02234,-1.109347 2.71174,-1.109347 1.6894,0 2.70449,1.109347 1.02234,1.109347 1.02234,2.951008 0,1.841662 -1.02234,2.958259 -1.01509,1.109348 -2.70449,1.109348 z" id="text176" style="font-size:14.8493px;font-family:serif;-inkscape-font-specification:serif;fill:#1a1a1a;stroke-width:1.48493;stroke-linejoin:round;paint-order:fill markers stroke"/>
	<path aria-label="hi" d="m 570.86894,70.992073 v -0.768567 h 1.20361 v -9.744854 h -1.27612 v -0.768567 h 2.61023 v 4.944933 q 0.36979,-0.783068 0.95709,-1.181853 0.59455,-0.398785 1.37762,-0.398785 1.27611,0 1.87791,0.732314 0.6018,0.732314 0.6018,2.28395 v 4.132862 h 1.18911 v 0.768567 h -3.68332 v -0.768567 h 1.15285 v -3.712325 q 0,-1.413874 -0.34803,-1.928669 -0.34078,-0.522046 -1.22536,-0.522046 -0.92808,0 -1.41387,0.674309 -0.4858,0.674309 -0.4858,1.964922 v 3.523809 h 1.1601 v 0.768567 z m 10.39741,-10.100134 q 0,-0.33353 0.23927,-0.580051 0.24652,-0.246522 0.5873,-0.246522 0.33353,0 0.5728,0.246522 0.24653,0.246521 0.24653,0.580051 0,0.340779 -0.23928,0.58005 -0.23927,0.239271 -0.58005,0.239271 -0.34078,0 -0.5873,-0.239271 -0.23927,-0.239271 -0.23927,-0.58005 z m 1.7039,9.331567 h 1.26161 v 0.768567 h -3.87184 v -0.768567 h 1.27611 v -6.16304 h -1.27611 v -0.775818 h 2.61023 z" id="text177" style="font-size:14.8493px;font-family:serif;-inkscape-font-specification:serif;fill:#1a1a1a;stroke-width:1.48493;stroke-linejoin:round;paint-order:fill markers stroke"/>
	<path aria-label="ya" d="m 642.90809,72.453837 0.50754,-1.283363 -2.8785,-7.062118 h -0.87733 v -0.775818 h 3.54556 v 0.775818 h -1.2326 l 2.16794,5.300214 2.16794,-5.300214 h -1.15285 v -0.775818 h 2.893 v 0.775818 h -0.86283 l -3.53106,8.671759 q -0.36253,0.899079 -0.80482,1.225357 -0.44229,0.33353 -1.24711,0.33353 -0.34078,0 -0.70331,-0.058 -0.35528,-0.058 -0.71781,-0.166765 v -1.471879 h 0.68156 q 0.0435,0.493043 0.24652,0.703312 0.21027,0.217519 0.64531,0.217519 0.39878,0 0.63805,-0.22477 0.24653,-0.217519 0.5148,-0.884577 z m 11.09347,-3.835586 v -1.631393 h -1.7184 q -0.99334,0 -1.47913,0.427787 -0.48579,0.427788 -0.48579,1.312365 0,0.804821 0.49304,1.276112 0.49304,0.471291 1.33412,0.471291 0.83382,0 1.34137,-0.514795 0.51479,-0.514795 0.51479,-1.341367 z m 1.33412,-2.39271 v 4.045854 h 1.1891 v 0.768568 h -2.52322 V 70.20614 q -0.44229,0.536547 -1.02234,0.790319 -0.58005,0.253772 -1.35587,0.253772 -1.28336,0 -2.03743,-0.68156 -0.75406,-0.681559 -0.75406,-1.841661 0,-1.196355 0.86282,-1.856162 0.86283,-0.659808 2.43622,-0.659808 h 1.87066 v -0.529296 q 0,-0.877327 -0.53655,-1.355869 -0.52929,-0.485793 -1.49363,-0.485793 -0.79757,0 -1.26886,0.362532 -0.47129,0.362532 -0.5873,1.073094 h -0.68881 v -1.558887 q 0.69606,-0.297276 1.34862,-0.442288 0.65981,-0.152264 1.28336,-0.152264 1.60239,0 2.43621,0.79757 0.84108,0.790319 0.84108,2.305702 z" id="text178" style="font-size:14.8493px;font-family:serif;-inkscape-font-specification:serif;fill:#1a1a1a;stroke-width:1.48493;stroke-linejoin:round;paint-order:fill markers stroke"/>
	<path aria-label="na" d="m 716.24193,70.980148 v -0.768567 h 1.2036 v -6.16304 h -1.27611 v -0.775818 h 2.61023 v 1.37037 q 0.36978,-0.783068 0.95708,-1.181853 0.59455,-0.398785 1.37762,-0.398785 1.27612,0 1.87792,0.732314 0.6018,0.732314 0.6018,2.28395 v 4.132862 h 1.1891 v 0.768567 h -3.68332 v -0.768567 h 1.15285 v -3.712325 q 0,-1.413874 -0.34803,-1.93592 -0.34803,-0.529296 -1.22535,-0.529296 -0.92809,0 -1.41388,0.68156 -0.48579,0.674309 -0.48579,1.972172 v 3.523809 h 1.1601 v 0.768567 z m 14.8638,-2.421712 v -1.631393 h -1.7184 q -0.99334,0 -1.47913,0.427788 -0.48579,0.427787 -0.48579,1.312365 0,0.80482 0.49304,1.276112 0.49304,0.471291 1.33412,0.471291 0.83382,0 1.34136,-0.514795 0.5148,-0.514795 0.5148,-1.341368 z m 1.33412,-2.392709 v 4.045854 h 1.1891 v 0.768567 h -2.52322 v -0.833823 q -0.44229,0.536547 -1.02234,0.79032 -0.58005,0.253772 -1.35587,0.253772 -1.28336,0 -2.03743,-0.68156 -0.75406,-0.68156 -0.75406,-1.841661 0,-1.196355 0.86282,-1.856163 0.86283,-0.659808 2.43621,-0.659808 h 1.87067 v -0.529296 q 0,-0.877327 -0.53655,-1.355869 -0.5293,-0.485792 -1.49363,-0.485792 -0.79757,0 -1.26886,0.362532 -0.47129,0.362531 -0.5873,1.073094 h -0.68881 v -1.558887 q 0.69606,-0.297276 1.34862,-0.442289 0.6598,-0.152263 1.28336,-0.152263 1.60239,0 2.43621,0.79757 0.84108,0.790319 0.84108,2.305702 z" id="text179" style="font-size:14.8493px;font-family:serif;-inkscape-font-specification:serif;fill:#1a1a1a;stroke-width:1.48493;stroke-linejoin:round;paint-order:fill markers stroke"/>
	<path aria-label="Ya" d="m 80.812092,185.14081 v -0.76857 h 1.384871 v -3.89359 l -3.342543,-5.38722 h -1.015089 v -0.77582 h 4.024103 v 0.77582 h -1.261611 l 2.704487,4.37938 2.704487,-4.37938 H 84.79269 v -0.77582 h 3.146776 v 0.77582 h -1.02234 l -3.255535,5.24946 v 4.03135 h 1.384871 v 0.76857 z m 11.753279,-2.42171 v -1.6314 H 90.84697 q -0.993337,0 -1.479129,0.42779 -0.485793,0.42779 -0.485793,1.31237 0,0.80482 0.493043,1.27611 0.493043,0.47129 1.334117,0.47129 0.833823,0 1.341368,-0.5148 0.514795,-0.51479 0.514795,-1.34136 z m 1.334116,-2.39271 v 4.04585 h 1.189105 v 0.76857 h -2.523221 v -0.83382 q -0.442289,0.53654 -1.02234,0.79031 -0.580051,0.25378 -1.355869,0.25378 -1.283362,0 -2.037428,-0.68156 -0.754066,-0.68156 -0.754066,-1.84166 0,-1.19636 0.862825,-1.85617 0.862826,-0.6598 2.436214,-0.6598 h 1.870664 v -0.5293 q 0,-0.87733 -0.536547,-1.35587 -0.529297,-0.48579 -1.493631,-0.48579 -0.79757,0 -1.268861,0.36253 -0.471292,0.36253 -0.587302,1.07309 h -0.68881 v -1.55888 q 0.696061,-0.29728 1.348618,-0.44229 0.659808,-0.15227 1.283362,-0.15227 1.602391,0 2.436214,0.79757 0.841073,0.79032 0.841073,2.30571 z" id="text180" style="font-size:14.8493px;font-family:serif;-inkscape-font-specification:serif;fill:#1a1a1a;stroke-width:1.48493;stroke-linejoin:round;paint-order:fill markers stroke"/>
	<path aria-label="na" d="m 141.98068,185.16154 v -0.76856 h 1.20361 v -6.16304 h -1.27612 v -0.77582 h 2.61023 v 1.37037 q 0.36979,-0.78307 0.95709,-1.18185 0.59455,-0.39879 1.37762,-0.39879 1.27611,0 1.87791,0.73232 0.6018,0.73231 0.6018,2.28395 v 4.13286 h 1.18911 v 0.76856 h -3.68332 v -0.76856 h 1.15285 v -3.71233 q 0,-1.41387 -0.34803,-1.93592 -0.34803,-0.52929 -1.22536,-0.52929 -0.92808,0 -1.41387,0.68156 -0.4858,0.67431 -0.4858,1.97217 v 3.52381 h 1.1601 v 0.76856 z m 14.8638,-2.42171 v -1.63139 h -1.7184 q -0.99333,0 -1.47913,0.42779 -0.48579,0.42778 -0.48579,1.31236 0,0.80482 0.49304,1.27611 0.49305,0.4713 1.33412,0.4713 0.83382,0 1.34137,-0.5148 0.51479,-0.51479 0.51479,-1.34137 z m 1.33412,-2.39271 v 4.04586 h 1.1891 v 0.76856 h -2.52322 v -0.83382 q -0.44229,0.53655 -1.02234,0.79032 -0.58005,0.25377 -1.35587,0.25377 -1.28336,0 -2.03742,-0.68156 -0.75407,-0.68156 -0.75407,-1.84166 0,-1.19635 0.86283,-1.85616 0.86282,-0.65981 2.43621,-0.65981 h 1.87066 v -0.52929 q 0,-0.87733 -0.53654,-1.35587 -0.5293,-0.4858 -1.49364,-0.4858 -0.79757,0 -1.26886,0.36254 -0.47129,0.36253 -0.5873,1.07309 h -0.68881 v -1.55889 q 0.69606,-0.29727 1.34862,-0.44229 0.65981,-0.15226 1.28336,-0.15226 1.60239,0 2.43622,0.79757 0.84107,0.79032 0.84107,2.3057 z" id="text181" style="font-size:14.8493px;font-family:serif;-inkscape-font-specification:serif;fill:#1a1a1a;stroke-width:1.48493;stroke-linejoin:round;paint-order:fill markers stroke"/>
	<path aria-label="hi . . . ." d="m 218.45668,185.20207 v -0.76857 h 1.2036 v -9.74485 h -1.27611 v -0.76857 h 2.61023 v 4.94494 q 0.36978,-0.78307 0.95709,-1.18186 0.59455,-0.39878 1.37762,-0.39878 1.27611,0 1.87791,0.73231 0.6018,0.73232 0.6018,2.28395 v 4.13286 h 1.18911 v 0.76857 h -3.68333 v -0.76857 h 1.15286 v -3.71232 q 0,-1.41387 -0.34804,-1.92867 -0.34077,-0.52204 -1.22535,-0.52204 -0.92808,0 -1.41388,0.6743 -0.48579,0.67431 -0.48579,1.96493 v 3.5238 h 1.1601 v 0.76857 z m 10.39741,-10.10013 q 0,-0.33353 0.23927,-0.58005 0.24652,-0.24652 0.5873,-0.24652 0.33353,0 0.5728,0.24652 0.24652,0.24652 0.24652,0.58005 0,0.34078 -0.23927,0.58005 -0.23927,0.23927 -0.58005,0.23927 -0.34078,0 -0.5873,-0.23927 -0.23927,-0.23927 -0.23927,-0.58005 z m 1.7039,9.33156 h 1.26161 v 0.76857 h -3.87184 v -0.76857 h 1.27611 v -6.16303 h -1.27611 v -0.77582 h 2.61023 z m 7.72193,0.0145 q 0,-0.40604 0.27552,-0.68881 0.27552,-0.28278 0.68881,-0.28278 0.39878,0 0.68156,0.28278 0.28277,0.28277 0.28277,0.68881 0,0.39878 -0.28277,0.68156 -0.28278,0.28277 -0.68156,0.28277 -0.41329,0 -0.68881,-0.27552 -0.27552,-0.28278 -0.27552,-0.68881 z m 9.44032,0 q 0,-0.40604 0.27553,-0.68881 0.27552,-0.28278 0.68881,-0.28278 0.39878,0 0.68156,0.28278 0.28277,0.28277 0.28277,0.68881 0,0.39878 -0.28277,0.68156 -0.28278,0.28277 -0.68156,0.28277 -0.41329,0 -0.68881,-0.27552 -0.27553,-0.28278 -0.27553,-0.68881 z m 9.44033,0 q 0,-0.40604 0.27552,-0.68881 0.27553,-0.28278 0.68881,-0.28278 0.39879,0 0.68156,0.28278 0.28278,0.28277 0.28278,0.68881 0,0.39878 -0.28278,0.68156 -0.28277,0.28277 -0.68156,0.28277 -0.41328,0 -0.68881,-0.27552 -0.27552,-0.28278 -0.27552,-0.68881 z m 9.44033,0 q 0,-0.40604 0.27552,-0.68881 0.27552,-0.28278 0.68881,-0.28278 0.39878,0 0.68156,0.28278 0.28277,0.28277 0.28277,0.68881 0,0.39878 -0.28277,0.68156 -0.28278,0.28277 -0.68156,0.28277 -0.41329,0 -0.68881,-0.27552 -0.27552,-0.28278 -0.27552,-0.68881 z" id="text182" style="font-size:14.8493px;font-family:serif;-inkscape-font-specification:serif;fill:#1a1a1a;stroke-width:1.48493;stroke-linejoin:round;paint-order:fill markers stroke"/>
	<path aria-label="ya" d="m 378.37351,186.57607 0.50755,-1.28336 -2.87851,-7.06212 h -0.87732 v -0.77581 h 3.54556 v 0.77581 h -1.23261 l 2.16794,5.30022 2.16794,-5.30022 h -1.15285 v -0.77581 h 2.893 v 0.77581 h -0.86282 l -3.53106,8.67176 q -0.36253,0.89908 -0.80482,1.22536 -0.44229,0.33353 -1.24711,0.33353 -0.34078,0 -0.70331,-0.058 -0.35528,-0.058 -0.71782,-0.16676 v -1.47188 h 0.68156 q 0.0435,0.49304 0.24652,0.70331 0.21027,0.21752 0.64531,0.21752 0.39879,0 0.63806,-0.22477 0.24652,-0.21752 0.51479,-0.88458 z m 11.09347,-3.83558 v -1.63139 h -1.7184 q -0.99333,0 -1.47913,0.42778 -0.48579,0.42779 -0.48579,1.31237 0,0.80482 0.49304,1.27611 0.49305,0.47129 1.33412,0.47129 0.83382,0 1.34137,-0.51479 0.51479,-0.5148 0.51479,-1.34137 z m 1.33412,-2.39271 v 4.04585 h 1.1891 v 0.76857 h -2.52322 v -0.83382 q -0.44228,0.53654 -1.02234,0.79032 -0.58005,0.25377 -1.35586,0.25377 -1.28337,0 -2.03743,-0.68156 -0.75407,-0.68156 -0.75407,-1.84166 0,-1.19636 0.86283,-1.85616 0.86282,-0.65981 2.43621,-0.65981 h 1.87066 v -0.5293 q 0,-0.87733 -0.53654,-1.35587 -0.5293,-0.48579 -1.49363,-0.48579 -0.79757,0 -1.26887,0.36253 -0.47129,0.36253 -0.5873,1.0731 h -0.68881 v -1.55889 q 0.69606,-0.29728 1.34862,-0.44229 0.65981,-0.15226 1.28336,-0.15226 1.60239,0 2.43622,0.79757 0.84107,0.79032 0.84107,2.3057 z" id="text183" style="font-size:14.8493px;font-family:serif;-inkscape-font-specification:serif;fill:#1a1a1a;stroke-width:1.48493;stroke-linejoin:round;paint-order:fill markers stroke"/>
	<path aria-label="na" d="m 444.05968,185.16154 v -0.76856 h 1.2036 v -6.16304 h -1.27611 v -0.77582 h 2.61023 v 1.37037 q 0.36978,-0.78307 0.95708,-1.18185 0.59455,-0.39879 1.37762,-0.39879 1.27611,0 1.87792,0.73232 0.6018,0.73231 0.6018,2.28395 v 4.13286 h 1.1891 v 0.76856 h -3.68332 v -0.76856 h 1.15285 v -3.71233 q 0,-1.41387 -0.34803,-1.93592 -0.34803,-0.52929 -1.22536,-0.52929 -0.92808,0 -1.41387,0.68156 -0.48579,0.67431 -0.48579,1.97217 v 3.52381 h 1.1601 v 0.76856 z m 14.8638,-2.42171 v -1.63139 h -1.7184 q -0.99334,0 -1.47913,0.42779 -0.4858,0.42778 -0.4858,1.31236 0,0.80482 0.49305,1.27611 0.49304,0.4713 1.33411,0.4713 0.83383,0 1.34137,-0.5148 0.5148,-0.51479 0.5148,-1.34137 z m 1.33411,-2.39271 v 4.04586 h 1.18911 v 0.76856 h -2.52322 v -0.83382 q -0.44229,0.53655 -1.02234,0.79032 -0.58005,0.25377 -1.35587,0.25377 -1.28336,0 -2.03743,-0.68156 -0.75407,-0.68156 -0.75407,-1.84166 0,-1.19635 0.86283,-1.85616 0.86283,-0.65981 2.43621,-0.65981 h 1.87067 v -0.52929 q 0,-0.87733 -0.53655,-1.35587 -0.5293,-0.4858 -1.49363,-0.4858 -0.79757,0 -1.26886,0.36254 -0.47129,0.36253 -0.5873,1.07309 h -0.68881 v -1.55889 q 0.69606,-0.29727 1.34861,-0.44229 0.65981,-0.15226 1.28337,-0.15226 1.60239,0 2.43621,0.79757 0.84107,0.79032 0.84107,2.3057 z" id="text184" style="font-size:14.8493px;font-family:serif;-inkscape-font-specification:serif;fill:#1a1a1a;stroke-width:1.48493;stroke-linejoin:round;paint-order:fill markers stroke"/>
	<path aria-label="hi . . . ." d="m 527.63701,185.20207 v -0.76857 h 1.2036 v -9.74485 h -1.27611 v -0.76857 h 2.61023 v 4.94494 q 0.36978,-0.78307 0.95708,-1.18186 0.59456,-0.39878 1.37762,-0.39878 1.27612,0 1.87792,0.73231 0.6018,0.73232 0.6018,2.28395 v 4.13286 h 1.18911 v 0.76857 h -3.68333 v -0.76857 h 1.15285 v -3.71232 q 0,-1.41387 -0.34803,-1.92867 -0.34078,-0.52204 -1.22535,-0.52204 -0.92809,0 -1.41388,0.6743 -0.48579,0.67431 -0.48579,1.96493 v 3.5238 h 1.1601 v 0.76857 z m 10.39741,-10.10013 q 0,-0.33353 0.23927,-0.58005 0.24652,-0.24652 0.5873,-0.24652 0.33353,0 0.5728,0.24652 0.24652,0.24652 0.24652,0.58005 0,0.34078 -0.23927,0.58005 -0.23927,0.23927 -0.58005,0.23927 -0.34078,0 -0.5873,-0.23927 -0.23927,-0.23927 -0.23927,-0.58005 z m 1.7039,9.33156 h 1.26161 v 0.76857 h -3.87184 v -0.76857 h 1.27611 v -6.16303 h -1.27611 v -0.77582 h 2.61023 z m 7.72192,0.0145 q 0,-0.40604 0.27553,-0.68881 0.27552,-0.28278 0.68881,-0.28278 0.39878,0 0.68156,0.28278 0.28277,0.28277 0.28277,0.68881 0,0.39878 -0.28277,0.68156 -0.28278,0.28277 -0.68156,0.28277 -0.41329,0 -0.68881,-0.27552 -0.27553,-0.28278 -0.27553,-0.68881 z m 9.44033,0 q 0,-0.40604 0.27552,-0.68881 0.27553,-0.28278 0.68881,-0.28278 0.39879,0 0.68156,0.28278 0.28278,0.28277 0.28278,0.68881 0,0.39878 -0.28278,0.68156 -0.28277,0.28277 -0.68156,0.28277 -0.41328,0 -0.68881,-0.27552 -0.27552,-0.28278 -0.27552,-0.68881 z m 9.44033,0 q 0,-0.40604 0.27552,-0.68881 0.27553,-0.28278 0.68881,-0.28278 0.39879,0 0.68156,0.28278 0.28278,0.28277 0.28278,0.68881 0,0.39878 -0.28278,0.68156 -0.28277,0.28277 -0.68156,0.28277 -0.41328,0 -0.68881,-0.27552 -0.27552,-0.28278 -0.27552,-0.68881 z m 9.44032,0 q 0,-0.40604 0.27553,-0.68881 0.27552,-0.28278 0.68881,-0.28278 0.39878,0 0.68156,0.28278 0.28277,0.28277 0.28277,0.68881 0,0.39878 -0.28277,0.68156 -0.28278,0.28277 -0.68156,0.28277 -0.41329,0 -0.68881,-0.27552 -0.27553,-0.28278 -0.27553,-0.68881 z" id="text185" style="font-size:14.8493px;font-family:serif;-inkscape-font-specification:serif;fill:#1a1a1a;stroke-width:1.48493;stroke-linejoin:round;paint-order:fill markers stroke"/>
	<path aria-label="yo" d="m 728.52338,186.38293 0.50755,-1.28336 -2.8785,-7.06212 h -0.87733 v -0.77582 h 3.54556 v 0.77582 h -1.23261 l 2.16794,5.30021 2.16794,-5.30021 h -1.15285 v -0.77582 h 2.893 v 0.77582 h -0.86282 l -3.53106,8.67176 q -0.36253,0.89908 -0.80482,1.22535 -0.44229,0.33353 -1.24711,0.33353 -0.34078,0 -0.70331,-0.058 -0.35528,-0.058 -0.71781,-0.16677 v -1.47187 h 0.68156 q 0.0435,0.49304 0.24652,0.70331 0.21027,0.21752 0.6453,0.21752 0.39879,0 0.63806,-0.22477 0.24652,-0.21752 0.51479,-0.88458 z m 9.6506,-1.92142 q 1.07309,0 1.61689,-0.84832 0.55105,-0.84833 0.55105,-2.50147 0,-1.65315 -0.55105,-2.49422 -0.5438,-0.84833 -1.61689,-0.84833 -1.07309,0 -1.62414,0.84833 -0.5438,0.84107 -0.5438,2.49422 0,1.65314 0.55105,2.50147 0.55105,0.84832 1.61689,0.84832 z m 0,0.71781 q -1.68215,0 -2.70449,-1.10934 -1.02234,-1.1166 -1.02234,-2.95826 0,-1.84166 1.01509,-2.95101 1.02234,-1.10935 2.71174,-1.10935 1.6894,0 2.70449,1.10935 1.02234,1.10935 1.02234,2.95101 0,1.84166 -1.02234,2.95826 -1.01509,1.10934 -2.70449,1.10934 z" id="text186" style="font-size:14.8493px;font-family:serif;-inkscape-font-specification:serif;fill:#1a1a1a;stroke-width:1.48493;stroke-linejoin:round;paint-order:fill markers stroke"/>
	<metadata id="metadata186">
		<rdf:RDF>
			<cc:Work rdf:about="">
				<dc:title>Title</dc:title>
			</cc:Work>
		</rdf:RDF>
	</metadata>
</svg>
